<?xml version="1.0" encoding="UTF-8" standalone="no"?>
<!-- Created with Inkscape (http://www.inkscape.org/) -->

<svg
   width="200mm"
   height="200mm"
   viewBox="15 45 180 180"
   version="1.1"
   id="svg1"
   xml:space="preserve"
   xmlns:inkscape="http://www.inkscape.org/namespaces/inkscape"
   xmlns:sodipodi="http://sodipodi.sourceforge.net/DTD/sodipodi-0.dtd"
   xmlns="http://www.w3.org/2000/svg"
   xmlns:svg="http://www.w3.org/2000/svg"><sodipodi:namedview
     id="namedview1"
     pagecolor="#ffffff"
     bordercolor="#000000"
     borderopacity="0.25"
     inkscape:showpageshadow="2"
     inkscape:pageopacity="0.0"
     inkscape:pagecheckerboard="0"
     inkscape:deskcolor="#d1d1d1"
     inkscape:document-units="mm" /><defs
     id="defs1" /><g
     inkscape:label="Layer 1"
     inkscape:groupmode="layer"
     id="layer1"><g
       id="g35"
       transform="translate(8.5247028,15.54353)"><path
         style="fill:#e39e4a"
         d="m 103.06344,194.13735 c 0.39726,-0.4561 1.58901,-1.76927 2.64835,-2.91815 1.05934,-1.14889 2.42427,-2.69618 3.03318,-3.43844 0.60891,-0.74226 1.96709,-2.50896 3.01817,-3.926 1.05108,-1.41704 2.51607,-3.57021 3.25553,-4.78481 0.73946,-1.21461 1.82636,-3.14693 2.41534,-4.29406 0.58897,-1.14713 1.46469,-3.02425 1.94603,-4.17138 0.48134,-1.14712 1.31716,-3.52112 1.85738,-5.27556 0.54023,-1.75443 1.24951,-4.783 1.57619,-6.73016 0.48031,-2.86291 0.59396,-4.38272 0.59396,-7.94319 0,-2.64461 -0.14674,-5.44438 -0.36746,-7.01083 -0.2021,-1.43436 -0.63621,-3.76733 -0.96469,-5.18437 -0.32848,-1.41704 -0.8652,-3.45278 -1.1927,-4.52386 -0.3275,-1.07108 -0.56083,-1.98271 -0.51851,-2.02584 0.0423,-0.0431 0.4687,0.778 0.94752,1.82474 0.47881,1.04673 1.20556,2.95213 1.61498,4.23421 0.40943,1.28209 1.00641,3.44588 1.32663,4.80843 0.32022,1.36254 0.74846,3.76981 0.95164,5.34947 0.20318,1.57966 0.36942,4.40666 0.36942,6.28222 0,1.87556 -0.166,4.71319 -0.36889,6.30584 -0.20289,1.59265 -0.65129,4.10654 -0.99645,5.58642 -0.34516,1.47989 -0.97873,3.74347 -1.40792,5.03019 -0.4292,1.28671 -1.28973,3.55409 -1.9123,5.03861 -0.62256,1.48451 -1.77315,3.93291 -2.55685,5.44088 -1.08356,2.08496 -1.42491,2.98766 -1.42491,3.76822 0,0.84736 0.0684,0.99972 0.39186,0.8732 0.21552,-0.0843 1.10934,0.13886 1.98626,0.49589 0.87692,0.35703 2.48822,1.06956 3.58066,1.5834 1.09245,0.51384 1.98626,1.03338 1.98626,1.15452 0,0.12115 -1.16467,0.46896 -2.58815,0.77292 -1.42349,0.30395 -6.2176,1.3721 -10.65359,2.37366 -4.43598,1.00157 -8.33627,1.89125 -8.66731,1.97707 -0.6019,0.15604 -0.6019,0.15604 0.12037,-0.67324 z m -36.131203,-6.79842 c -1.579452,-1.05274 -4.659365,-3.07321 -6.844252,-4.48993 -2.184886,-1.41673 -5.146326,-3.3312 -6.580977,-4.25438 -1.844009,-1.1866 -2.51431,-1.73933 -2.28721,-1.88605 0.176686,-0.11415 1.567174,-0.21065 3.089974,-0.21444 1.5228,-0.004 4.39385,-0.16735 6.380111,-0.36347 1.98626,-0.19611 4.687133,-0.52904 6.001938,-0.73985 1.314806,-0.21081 3.452389,-0.65761 4.750183,-0.99289 1.297795,-0.33528 3.363949,-0.95166 4.591452,-1.36973 1.227503,-0.41807 3.261069,-1.19519 4.519034,-1.72694 1.257965,-0.53174 3.203905,-1.47131 4.324312,-2.08792 1.120406,-0.61662 3.151961,-1.88345 4.514567,-2.81518 1.362605,-0.93174 3.262787,-2.37391 4.222628,-3.20481 0.95984,-0.83091 2.17853,-1.96573 2.708199,-2.52181 0.52967,-0.55608 1.559556,-1.67277 2.288637,-2.48152 0.729081,-0.80876 1.931937,-2.29381 2.673007,-3.30013 0.74108,-1.00632 1.9472,-2.82344 2.68027,-4.03804 0.73307,-1.21461 1.84628,-3.23408 2.47381,-4.48771 0.62752,-1.25364 1.18418,-2.23528 1.23702,-2.18142 0.0528,0.0539 -0.2374,1.02434 -0.64497,2.15665 -0.40757,1.1323 -1.34003,3.30383 -2.07213,4.82562 -0.7321,1.52179 -2.06138,3.8958 -2.95395,5.27556 -0.89258,1.37977 -2.442665,3.50244 -3.444641,4.71704 -1.001976,1.21461 -2.619432,2.99418 -3.594347,3.95461 -0.974914,0.96042 -2.747645,2.54234 -3.939401,3.51536 -1.191757,0.97303 -3.141903,2.3885 -4.33366,3.14551 -1.191756,0.75701 -3.62944,2.11701 -5.417075,3.02222 -1.787634,0.90521 -4.442001,2.09298 -5.898592,2.63949 -1.456591,0.54651 -3.623421,1.29073 -4.815178,1.65383 -1.430558,0.43586 -2.402907,0.89128 -2.8616,1.34029 -0.69477,0.68012 -0.69477,0.68012 -0.211357,1.37821 0.265878,0.38395 0.984805,2.12001 1.597617,3.8579 0.612811,1.7379 1.114202,3.25615 1.114202,3.37391 0,0.11775 -0.08908,0.2141 -0.197945,0.2141 -0.10887,0 -1.490224,-0.86134 -3.069676,-1.91408 z m 84.539643,-21.07134 c -0.0905,-2.40564 -0.37999,-6.03016 -0.64335,-8.05451 -0.26336,-2.02434 -0.68629,-4.7484 -0.93985,-6.05346 -0.25356,-1.30506 -0.7352,-3.36671 -1.07032,-4.58144 -0.33511,-1.21473 -0.89387,-3.01784 -1.24168,-4.00691 -0.34782,-0.98907 -1.17356,-3.00999 -1.83499,-4.49094 -0.66143,-1.48095 -1.85607,-3.79974 -2.65476,-5.15287 -0.79868,-1.35313 -2.22129,-3.50738 -3.16134,-4.78721 -0.94006,-1.27983 -2.73893,-3.38321 -3.99749,-4.67416 -1.25855,-1.29096 -3.15501,-3.05014 -4.21435,-3.90929 -1.05934,-0.85915 -3.02459,-2.30179 -4.36723,-3.20587 -1.34264,-0.90407 -3.75324,-2.32554 -5.35689,-3.1588 -1.60364,-0.83326 -2.91572,-1.56003 -2.91572,-1.61503 0,-0.055 0.56879,0.1053 1.26398,0.35623 0.6952,0.25093 1.96063,0.75083 2.81208,1.1109 0.85145,0.36007 2.63908,1.21087 3.97252,1.89066 1.33344,0.6798 3.34533,1.8454 4.47088,2.59022 1.12555,0.74483 2.6965,1.86024 3.49101,2.47869 0.7945,0.61845 2.5671,2.23195 3.9391,3.58556 1.372,1.35361 3.17318,3.28925 4.00263,4.30142 0.82944,1.01217 2.20552,2.88929 3.05795,4.17138 0.85244,1.28208 2.1569,3.49045 2.8988,4.90749 0.7419,1.41704 1.83934,3.75338 2.43875,5.19185 0.59941,1.43848 1.59824,4.2456 2.21962,6.23804 0.80678,2.58689 1.30266,3.7859 1.73444,4.19374 0.33256,0.31411 0.67366,0.57112 0.758,0.57112 0.0843,0 0.44772,-0.24141 0.8075,-0.53646 0.35979,-0.29505 2.07587,-1.07287 3.81351,-1.72848 1.73764,-0.6556 3.21452,-1.13577 3.28197,-1.06704 0.0674,0.0687 -1.82852,3.19295 -4.21324,6.9427 -2.38473,3.74974 -5.11581,8.08752 -6.06908,9.63952 -0.95326,1.552 -1.81977,2.91294 -1.92556,3.02432 -0.1058,0.11138 -0.2664,-1.76574 -0.35689,-4.17137 z M 62.375195,150.08777 c -0.52967,-0.0563 -2.100622,-0.27699 -3.491004,-0.49046 -1.390383,-0.21347 -3.557212,-0.6583 -4.815178,-0.98852 -1.257965,-0.33022 -3.208112,-0.91892 -4.333659,-1.30822 -1.125548,-0.3893 -3.021524,-1.12324 -4.213281,-1.63098 -1.191756,-0.50775 -3.604821,-1.67501 -5.362365,-2.59393 -1.859491,-0.97222 -3.498386,-1.67076 -3.919888,-1.67076 -0.478912,0 -0.769218,0.1455 -0.85676,0.42941 -0.07283,0.23617 -0.41517,1.14713 -0.760768,2.02434 -0.345597,0.87722 -1.042097,2.50589 -1.547778,3.61928 -0.50568,1.11339 -1.012544,2.02434 -1.126364,2.02434 -0.113819,0 -0.449315,-1.187 -0.745545,-2.63778 -0.29623,-1.45078 -1.236094,-5.83992 -2.088586,-9.75365 -0.852492,-3.91373 -1.713732,-7.76299 -1.913865,-8.55392 -0.200134,-0.79093 -0.304693,-1.49837 -0.232354,-1.5721 0.07234,-0.0737 0.972229,0.65777 1.999754,1.62554 1.027525,0.96777 3.222497,2.92864 4.877714,4.35749 1.655217,1.42885 4.147071,3.40055 5.537454,4.38156 1.390382,0.98101 3.686561,2.46212 5.102619,3.29135 1.416058,0.82923 3.745401,2.04425 5.176316,2.70003 1.430916,0.65579 3.793421,1.5909 5.250012,2.07802 1.456592,0.48712 3.623422,1.1156 4.815178,1.39661 1.191756,0.28101 3.304416,0.6671 4.694798,0.85798 1.390383,0.19087 4.157208,0.3492 6.148502,0.35183 1.991294,0.003 4.880892,-0.15455 6.421331,-0.34931 1.540438,-0.19476 4.190687,-0.70218 5.889442,-1.1276 1.698754,-0.42543 3.891137,-1.04007 4.871961,-1.36588 0.980824,-0.32581 1.824108,-0.5508 1.873964,-0.49999 0.04986,0.0508 -0.820118,0.49115 -1.933278,0.97853 -1.11316,0.48737 -2.87897,1.20744 -3.924023,1.60016 -1.045052,0.39271 -3.036058,1.00357 -4.424456,1.35748 -1.388398,0.3539 -3.499434,0.81292 -4.691191,1.02002 -1.225202,0.21292 -4.15471,0.41456 -6.741248,0.46401 -2.51593,0.0481 -5.007785,0.0414 -5.537454,-0.0149 z m 12.265307,-18.7167 c -1.331541,-0.51686 -3.335859,-1.37727 -4.454039,-1.91204 -1.11818,-0.53477 -3.042063,-1.59947 -4.275295,-2.36599 -1.233232,-0.76653 -3.129208,-2.08 -4.213281,-2.91883 -1.084072,-0.83882 -2.989461,-2.52235 -4.234198,-3.74118 -1.244737,-1.21883 -3.078875,-3.20982 -4.075864,-4.42443 -0.996988,-1.21461 -2.533899,-3.32321 -3.415358,-4.68579 -0.881458,-1.36257 -2.208956,-3.68545 -2.949996,-5.16195 -0.741039,-1.4765 -1.832129,-3.89506 -2.424644,-5.37458 -0.592515,-1.479529 -1.480748,-4.015072 -1.973852,-5.634547 -0.493103,-1.619474 -1.11797,-3.192941 -1.388593,-3.496592 -0.270623,-0.303651 -0.615319,-0.552094 -0.765991,-0.552094 -0.150672,0 -0.70058,0.207898 -1.222017,0.461994 -0.521437,0.254097 -1.977311,0.852608 -3.235276,1.330026 -1.257965,0.477417 -2.602963,0.948559 -2.988883,1.046982 -0.552158,0.140819 -0.673797,0.104911 -0.570847,-0.168516 0.07196,-0.191106 1.370796,-2.277984 2.886313,-4.637506 1.515517,-2.359522 3.24488,-5.06297 3.843028,-6.007664 0.598149,-0.944693 2.046579,-3.294475 3.218735,-5.221738 1.317264,-2.16585 2.193404,-3.384102 2.294087,-3.189874 0.08959,0.172832 0.225041,2.191358 0.300998,4.485614 0.07596,2.294255 0.363866,5.938072 0.639797,8.097371 0.275931,2.1593 0.776737,5.175891 1.112902,6.703537 0.336166,1.527646 1.019923,4.012067 1.519461,5.520935 0.499538,1.508872 1.412111,3.958002 2.027939,5.442522 0.615829,1.48452 1.804206,3.87176 2.640838,5.30499 0.836633,1.43322 2.165019,3.52406 2.951971,4.64631 0.786952,1.12224 2.782139,3.46673 4.433749,5.20998 1.65161,1.74324 4.039443,3.96529 5.306295,4.9379 1.266852,0.9726 3.274121,2.38018 4.460597,3.12796 1.186477,0.74778 3.348987,1.98297 4.805578,2.74487 1.456591,0.76189 2.540006,1.38229 2.407589,1.37866 -0.132417,-0.004 -1.330202,-0.42948 -2.661743,-0.94633 z m 93.788978,-14.14135 c -0.46346,-0.49278 -2.07304,-2.01811 -3.57684,-3.38961 -1.5038,-1.3715 -3.89013,-3.37698 -5.30295,-4.45663 -1.41282,-1.07965 -3.21599,-2.39726 -4.00706,-2.92802 -0.79107,-0.53076 -2.46755,-1.55999 -3.72551,-2.28717 -1.25797,-0.72718 -3.06826,-1.70011 -4.02287,-2.16206 -0.95461,-0.46195 -2.57973,-1.18311 -3.61138,-1.60258 -1.03165,-0.419463 -2.90497,-1.087025 -4.16294,-1.483469 -1.25796,-0.396444 -3.74982,-1.010475 -5.53745,-1.364514 -2.90341,-0.575017 -3.8283,-0.644598 -8.66732,-0.652059 -4.08582,-0.0063 -6.00874,0.09626 -7.82466,0.417323 -1.32418,0.234122 -3.27433,0.640471 -4.33366,0.902999 -1.05934,0.262528 -2.6303,0.692104 -3.49101,0.954614 -0.86071,0.26251 -1.93682,0.593733 -2.39135,0.736051 -0.45453,0.142315 -0.72538,0.165895 -0.60189,0.05239 0.12348,-0.113501 1.29676,-0.669124 2.60728,-1.234716 1.31052,-0.565593 3.80238,-1.460563 5.53746,-1.988824 1.73507,-0.528261 4.45478,-1.187984 6.04379,-1.466052 1.58901,-0.278068 4.51423,-0.571552 6.50049,-0.652186 2.13727,-0.08677 4.74153,-0.03 6.38011,0.139063 1.5228,0.15712 3.85214,0.507486 5.17632,0.778592 1.32417,0.271105 3.51464,0.816818 4.86772,1.212696 1.35307,0.395878 3.46573,1.115439 4.6948,1.599024 1.22906,0.483586 4.10041,1.817528 6.38077,2.964308 3.06822,1.543 4.34227,2.06493 4.90067,2.00764 0.70802,-0.0727 0.80254,-0.20607 1.53246,-2.16311 0.42784,-1.14713 1.14343,-2.941435 1.59019,-3.987346 0.44677,-1.04591 0.89059,-1.901655 0.98627,-1.901655 0.0957,0 0.23287,0.193232 0.30486,0.429406 0.072,0.236173 0.67834,3.024245 1.34745,6.195715 0.6691,3.17147 1.70812,7.95099 2.30893,10.62115 0.60081,2.67016 1.05809,5.02363 1.01618,5.22993 -0.0552,0.27183 -0.30816,0.12845 -0.91886,-0.5209 z m -92.810608,-4.702 c -0.357156,-0.78464 -1.025361,-2.42039 -1.484899,-3.63499 -0.459539,-1.21461 -1.204863,-3.64382 -1.656276,-5.39825 -0.451413,-1.75443 -1.000724,-4.34927 -1.22069,-5.76631 -0.252507,-1.626671 -0.406921,-4.15938 -0.41888,-6.870497 -0.01042,-2.361734 0.121865,-5.343039 0.293962,-6.625123 0.172096,-1.282084 0.515215,-3.26962 0.762486,-4.416748 0.247272,-1.147128 0.73287,-3.079455 1.079108,-4.294061 0.346238,-1.214605 1.095648,-3.423374 1.665356,-4.908375 0.569707,-1.485 1.868359,-4.394151 2.885892,-6.46478 1.452441,-2.955644 1.834298,-3.951946 1.776722,-4.635636 -0.06574,-0.780687 -0.173052,-0.901554 -1.036373,-1.167318 -0.529669,-0.163052 -2.100621,-0.820454 -3.491003,-1.460893 -1.390383,-0.640439 -2.662202,-1.276393 -2.826266,-1.413233 -0.164064,-0.13684 -0.243431,-0.339278 -0.176371,-0.449863 0.06706,-0.110585 0.743001,-0.328266 1.502092,-0.483735 0.759091,-0.155469 3.113629,-0.664024 5.232307,-1.130123 2.118678,-0.466099 5.368923,-1.187482 7.222767,-1.603073 1.853843,-0.415591 4.17343,-0.963442 5.154638,-1.217446 0.981208,-0.254005 2.049805,-0.461827 2.37466,-0.461827 0.529955,0 0.41401,0.1954 -1.128397,1.901656 -0.945473,1.04591 -2.747483,3.116261 -4.004466,4.600779 -1.256984,1.484518 -3.256508,4.079358 -4.443386,5.76631 -1.186879,1.686953 -2.943274,4.557839 -3.9031,6.379748 -0.959825,1.821908 -2.260044,4.5397 -2.889374,6.039537 -0.62933,1.499838 -1.514754,4.039468 -1.967608,5.643623 -0.452855,1.604155 -1.06882,4.352089 -1.368811,6.10652 -0.442206,2.586139 -0.544889,4.095475 -0.542533,7.974684 0.002,3.304642 0.129003,5.581824 0.410531,7.361244 0.224194,1.41704 0.673889,3.68063 0.999322,5.03019 0.325434,1.34956 0.910845,3.445 1.300914,4.65654 0.390069,1.21154 0.672729,2.23998 0.628133,2.28543 -0.0446,0.0455 -0.373301,-0.55934 -0.730457,-1.34398 z M 88.97905,99.690868 c 0,-0.135122 0.570862,-1.598169 1.268582,-3.251217 0.69772,-1.653048 1.954544,-4.234983 2.792943,-5.737633 0.838399,-1.502649 2.244769,-3.71047 3.125268,-4.906268 0.880498,-1.195798 2.68129,-3.317443 4.001757,-4.714766 1.32047,-1.397324 3.21645,-3.233594 4.21328,-4.0806 0.99684,-0.847007 2.84167,-2.250829 4.09964,-3.119606 1.25796,-0.868776 3.42479,-2.198358 4.81518,-2.954627 1.39038,-0.756268 3.82806,-1.926866 5.41707,-2.601328 1.58901,-0.674462 4.35172,-1.686123 6.13935,-2.248135 2.57584,-0.809816 3.39112,-1.175378 3.92917,-1.761804 0.61,-0.664859 0.6423,-0.781205 0.31815,-1.1463 -0.19841,-0.223486 -0.59638,-0.958431 -0.88437,-1.633212 -0.28798,-0.674781 -0.88812,-2.243924 -1.33364,-3.486984 -0.44552,-1.24306 -0.72724,-2.312266 -0.62603,-2.376014 0.1012,-0.06375 1.26239,0.600104 2.58042,1.475225 1.31803,0.875121 3.26315,2.163209 4.32248,2.862418 1.05934,0.699209 4.19585,2.719785 6.97001,4.490169 2.77417,1.770383 5.07973,3.328294 5.12347,3.462024 0.0492,0.150515 -1.50547,0.301867 -4.08091,0.397284 -2.28823,0.08478 -5.89389,0.380463 -8.01257,0.657082 -2.11867,0.27662 -4.61053,0.663163 -5.53745,0.858986 -0.92692,0.195823 -2.5348,0.584305 -3.57306,0.863294 -1.03826,0.278989 -2.7158,0.790552 -3.72787,1.136807 -1.01207,0.346254 -2.65444,0.958999 -3.64971,1.361655 -0.99527,0.402655 -2.893,1.295601 -4.21717,1.984323 -1.32417,0.688723 -3.32849,1.853604 -4.45404,2.588625 -1.12555,0.735022 -2.6965,1.845612 -3.491,2.46798 -0.79451,0.622367 -2.6236,2.291179 -4.06465,3.708471 -1.441053,1.417292 -3.239957,3.349826 -3.997564,4.294519 -0.757608,0.944693 -2.137243,2.877021 -3.065856,4.294061 -0.928613,1.41704 -2.253877,3.653019 -2.945032,4.968842 -0.691156,1.315822 -1.301466,2.392405 -1.356247,2.392405 -0.05478,0 -0.0996,-0.110554 -0.0996,-0.245676 z"
         id="path39"
         inkscape:export-filename="path39.svg"
         inkscape:export-xdpi="135.72324"
         inkscape:export-ydpi="135.72324" /><path
         style="fill:#628cb2"
         d="m 101.62789,186.8606 c 0.0832,-0.50608 0.37465,-1.63788 0.64776,-2.51509 0.27311,-0.87722 0.9142,-2.69288 1.42464,-4.03482 0.51045,-1.34193 0.92809,-2.53282 0.92809,-2.64641 0,-0.11359 -0.1896,-0.10753 -0.42133,0.0135 -0.23173,0.121 -0.9209,0.2863 -1.53149,0.36732 -0.71036,0.0943 -1.24636,0.0402 -1.48837,-0.15003 -0.30129,-0.23687 -0.4126,-1.0834 -0.54725,-4.16201 -0.11892,-2.71908 -0.0916,-3.86465 0.092,-3.86465 0.14358,0 0.63638,0.46928 1.09512,1.04284 0.45873,0.57357 1.30697,1.65015 1.88497,2.39241 0.57801,0.74226 1.29887,1.70842 1.60191,2.14703 0.31337,0.45355 0.76184,0.79747 1.0399,0.79747 0.2689,0 0.8181,-0.35886 1.22045,-0.79747 0.40235,-0.43861 1.66591,-2.23444 2.8079,-3.99073 1.142,-1.7563 2.69102,-4.46156 3.44227,-6.01169 0.75125,-1.55013 1.73806,-3.92261 2.19291,-5.27217 0.45485,-1.34956 1.05568,-3.50272 1.33517,-4.78481 0.2795,-1.28208 0.61863,-3.26672 0.75362,-4.41031 0.13499,-1.14359 0.24544,-3.21829 0.24544,-4.61045 0,-1.39216 -0.11584,-3.60343 -0.25742,-4.91394 -0.14159,-1.3105 -0.46459,-3.47978 -0.71778,-4.82062 -0.25319,-1.34084 -0.41612,-2.48296 -0.36206,-2.53806 0.0541,-0.0551 0.37448,0.79093 0.71206,1.88005 0.33758,1.08911 0.84184,3.11459 1.12057,4.50105 0.27873,1.38647 0.57935,3.99669 0.66804,5.8005 0.0887,1.80381 0.0832,4.28823 -0.0122,5.52093 -0.0954,1.23271 -0.2239,2.79154 -0.28563,3.46406 -0.0617,0.67252 -0.22336,1.66629 -0.35921,2.20837 -0.13584,0.54209 -0.5232,2.17505 -0.86079,3.62881 -0.3376,1.45377 -0.8939,3.49651 -1.23624,4.53944 -0.34234,1.04293 -0.77455,2.24417 -0.96046,2.66944 -0.18592,0.42526 -0.33803,0.84216 -0.33803,0.92644 0,0.0843 -0.49442,1.21728 -1.0987,2.51778 -0.60429,1.30051 -1.40203,2.81594 -1.77275,3.36762 -0.37072,0.55169 -0.91037,1.47757 -1.19921,2.05751 -0.28883,0.57994 -1.032,1.73934 -1.65146,2.57644 -0.61947,0.83709 -1.42487,1.83174 -1.78978,2.21033 -0.3649,0.37858 -1.05806,1.17912 -1.54034,1.77896 -0.48229,0.59985 -0.98545,1.09064 -1.11815,1.09064 -0.13269,0 -0.93617,0.66251 -1.7855,1.47225 -0.84932,0.80974 -1.65351,1.47225 -1.78709,1.47225 -0.14701,0 -0.18319,-0.36316 -0.0917,-0.92016 z M 57.217683,171.37687 c -0.850371,-0.0874 -1.587609,-0.28748 -1.638307,-0.4446 -0.0507,-0.15713 0.374207,-0.60427 0.944232,-0.99365 0.570025,-0.38938 2.239308,-1.27601 3.709518,-1.9703 1.47021,-0.69428 2.986991,-1.33895 3.370625,-1.43259 0.383633,-0.0936 0.832942,-0.27897 0.998463,-0.41184 0.165522,-0.13287 0.300949,-0.32667 0.300949,-0.43067 0,-0.10399 -0.156305,-0.2502 -0.347343,-0.32492 -0.191039,-0.0747 -0.678439,-0.0391 -1.083112,0.0792 -0.550285,0.16085 -0.826794,0.12229 -1.096848,-0.15294 -0.198594,-0.2024 -0.425526,-0.6297 -0.504292,-0.94954 -0.103125,-0.41876 0.09548,-0.94625 0.709557,-1.8845 0.469022,-0.71663 1.613646,-2.06982 2.543609,-3.0071 0.929963,-0.93727 1.762522,-1.63108 1.850133,-1.54179 0.08761,0.0893 0.02754,1.40825 -0.133494,2.93101 -0.161032,1.52277 -0.395852,3.25269 -0.521824,3.84428 -0.189156,0.8883 -0.158223,1.15535 0.177638,1.53359 0.233129,0.26254 0.730534,0.45799 1.165578,0.45799 0.417396,0 1.8903,-0.21392 3.27312,-0.47538 1.38282,-0.26145 3.244427,-0.65007 4.136905,-0.86359 0.892478,-0.21353 2.896796,-0.84321 4.45404,-1.39931 1.557243,-0.5561 3.984128,-1.59138 5.393078,-2.30062 1.408949,-0.70925 3.413267,-1.87082 4.454039,-2.58127 1.040772,-0.71045 2.945446,-2.2159 4.232609,-3.34545 1.287163,-1.12955 3.248533,-3.12706 4.3586,-4.4389 1.110066,-1.31184 2.552794,-3.15809 3.206064,-4.10279 0.65327,-0.94469 1.48626,-2.24211 1.85109,-2.88315 0.36483,-0.64104 0.71025,-1.16553 0.7676,-1.16553 0.0573,0 0.009,0.24844 -0.10643,0.55209 -0.11589,0.30365 -0.53009,1.16628 -0.92045,1.91695 -0.39036,0.75067 -1.01879,1.91006 -1.39652,2.57643 -0.37773,0.66637 -1.09066,1.76368 -1.584291,2.43846 -0.493628,0.67478 -1.352363,1.83418 -1.9083,2.57644 -0.555937,0.74226 -1.88971,2.26051 -2.963941,3.3739 -1.07423,1.11339 -2.059222,2.02434 -2.18887,2.02434 -0.129648,0 -0.455856,0.24884 -0.724907,0.55296 -0.26905,0.30413 -1.012237,0.98108 -1.651526,1.50433 -0.639289,0.52325 -1.693007,1.3234 -2.341595,1.7781 -0.648588,0.45471 -1.337981,0.82674 -1.531985,0.82674 -0.194003,0 -0.426524,0.12168 -0.516713,0.27041 -0.09019,0.14873 -0.502863,0.43435 -0.917054,0.63472 -0.414192,0.20038 -1.103896,0.56096 -1.532676,0.80131 -0.428781,0.24035 -0.945161,0.57703 -1.147511,0.74819 -0.202351,0.17115 -1.584995,0.86263 -3.072542,1.53662 -1.487547,0.67399 -3.463021,1.42782 -4.389943,1.67518 -0.926921,0.24736 -2.064507,0.6076 -2.527968,0.80054 -0.463461,0.19293 -1.276022,0.46179 -1.805692,0.59746 -0.529669,0.13567 -1.721426,0.43423 -2.648347,0.66345 -1.110472,0.27462 -2.958173,0.442 -5.417075,0.49071 -2.052469,0.0407 -4.42752,0.002 -5.277891,-0.085 z m 88.301487,-5.85809 c -0.20014,-0.23936 -0.6011,-0.83909 -0.89103,-1.33273 -0.28993,-0.49364 -0.84813,-1.54262 -1.24045,-2.33106 -0.39232,-0.78844 -0.71468,-1.50261 -0.71636,-1.58703 -0.002,-0.0844 -0.26746,-0.76285 -0.59063,-1.50761 -0.58759,-1.3541 -0.58759,-1.3541 -1.72709,-0.76615 -0.62673,0.32337 -1.31884,0.75335 -1.53802,0.95551 -0.21918,0.20216 -0.50025,0.36756 -0.62461,0.36756 -0.12436,0 -1.35628,-1.15578 -2.7376,-2.56839 -1.38132,-1.41262 -2.45021,-2.63085 -2.3753,-2.7072 0.0749,-0.0763 1.6538,0.0385 3.50865,0.25519 1.85485,0.21669 3.73824,0.35835 4.1853,0.31479 0.77215,-0.0752 0.81658,-0.13226 0.88769,-1.13923 0.0412,-0.58302 -0.15342,-2.29451 -0.43243,-3.80331 -0.27902,-1.50881 -0.83545,-3.93695 -1.23653,-5.39588 -0.40107,-1.45893 -1.09348,-3.57346 -1.53868,-4.69896 -0.44521,-1.1255 -1.20581,-2.85793 -1.69022,-3.84984 -0.48442,-0.99191 -1.71007,-3.07306 -2.72367,-4.62478 -1.29149,-1.97713 -2.70739,-3.70774 -4.73203,-5.78383 -1.58901,-1.62938 -3.5546,-3.47645 -4.36798,-4.10459 -0.81339,-0.62814 -2.47602,-1.81503 -3.69475,-2.63754 -1.21872,-0.82251 -2.16204,-1.55033 -2.09625,-1.61738 0.0658,-0.0671 0.69497,0.17525 1.3982,0.53843 0.70322,0.36318 2.42037,1.37959 3.81589,2.25869 1.39552,0.8791 3.29569,2.24367 4.22262,3.03238 0.92692,0.78871 2.74322,2.58175 4.03622,3.98454 1.29301,1.40279 2.86869,3.25647 3.50153,4.11929 0.63284,0.86282 1.55089,2.18337 2.04012,2.93455 0.48922,0.75118 1.18871,1.96576 1.5544,2.69906 0.3657,0.73331 0.90466,1.67368 1.19768,2.08971 0.29302,0.41603 0.79465,1.46285 1.11473,2.32627 0.32007,0.86342 0.975,2.53658 1.45539,3.71814 0.48039,1.18156 1.20553,3.44514 1.61141,5.03018 0.40589,1.58505 0.8427,3.59962 0.97068,4.47684 0.12799,0.87721 0.28518,2.80954 0.34932,4.29406 0.0641,1.48452 0.15816,2.81956 0.20894,2.96677 0.0508,0.1472 -0.003,1.1322 -0.11907,2.18888 -0.11627,1.05668 -0.30383,2.01543 -0.41679,2.13056 -0.11333,0.11551 -0.36846,0.0143 -0.56928,-0.22589 z M 68.996064,144.05913 c -1.257965,-0.0922 -2.991429,-0.29572 -3.852142,-0.45233 -0.860713,-0.1566 -2.10664,-0.37822 -2.768727,-0.49247 -0.662087,-0.11425 -2.012944,-0.38649 -3.001904,-0.60497 -0.988961,-0.21848 -1.909863,-0.48126 -2.046451,-0.58396 -0.136587,-0.1027 -0.735877,-0.32962 -1.331756,-0.50427 -0.595878,-0.17465 -1.300098,-0.4122 -1.564932,-0.52789 -0.264835,-0.11569 -1.200579,-0.47993 -2.079431,-0.80941 -0.878851,-0.32948 -2.485248,-1.06468 -3.56977,-1.63377 -1.084522,-0.56908 -2.261438,-1.27966 -2.615368,-1.57905 -0.35393,-0.29939 -0.923249,-0.61379 -1.265152,-0.69868 -0.341903,-0.0849 -1.353973,-0.7053 -2.249044,-1.37869 -0.895072,-0.6734 -2.055747,-1.58691 -2.579278,-2.03002 -0.523531,-0.44311 -1.840803,-1.73369 -2.927271,-2.86795 -1.086468,-1.13426 -2.327506,-2.42427 -2.757863,-2.86668 -0.430356,-0.44241 -0.782466,-0.91527 -0.782466,-1.0508 0,-0.14443 0.373697,-0.19229 0.902846,-0.11563 0.496565,0.0719 2.365456,0.63081 4.15309,1.24195 1.787635,0.61113 3.667025,1.32597 4.176422,1.58852 0.509397,0.26255 0.978626,0.42391 1.042731,0.35857 0.06411,-0.0653 -0.02103,-0.37669 -0.189192,-0.6919 -0.168161,-0.31521 -0.327562,-0.97497 -0.354225,-1.46614 -0.04067,-0.74917 0.05393,-0.94176 0.587189,-1.19544 0.600491,-0.28566 0.609021,-0.31337 0.15415,-0.50062 -0.275081,-0.11324 1.247393,-0.20562 3.551193,-0.21547 2.217992,-0.009 4.032712,0.0293 4.032712,0.0862 0,0.0569 -1.462611,1.27815 -3.250245,2.71386 -1.787635,1.4357 -3.250245,2.75714 -3.250245,2.93652 0,0.17938 0.189598,0.55119 0.421328,0.82624 0.23173,0.27505 1.396402,1.20664 2.588158,2.07021 1.191756,0.86356 3.121813,2.14361 4.289014,2.84456 1.167202,0.70095 3.063178,1.72443 4.213281,2.2744 1.150102,0.54997 3.337023,1.42586 4.859823,1.94642 1.522799,0.52057 4.014654,1.17806 5.537454,1.46111 1.5228,0.28304 4.339678,0.57856 6.259731,0.6567 2.090915,0.0851 4.553139,0.0244 6.139351,-0.15134 1.456591,-0.16138 3.676044,-0.49924 4.932118,-0.75079 1.256074,-0.25155 2.322874,-0.41751 2.370666,-0.3688 0.04779,0.0487 -0.64285,0.31828 -1.534759,0.59904 -0.89191,0.28077 -2.337904,0.68143 -3.213322,0.89037 -0.875417,0.20894 -2.133375,0.4913 -2.795462,0.62748 -0.662087,0.13618 -2.720575,0.32294 -4.574419,0.41503 -1.853843,0.0921 -4.399868,0.092 -5.657833,-1.4e-4 z m 6.779567,-16.76611 c -1.104473,-0.60434 -2.675425,-1.51072 -3.491004,-2.01417 -0.815579,-0.50345 -2.262748,-1.49436 -3.215931,-2.20203 -0.953182,-0.70766 -2.514813,-2.03542 -3.470291,-2.95057 -0.955478,-0.91514 -2.538698,-2.64242 -3.518267,-3.83839 -0.979569,-1.19597 -2.457763,-3.23872 -3.284876,-4.53944 -0.827113,-1.30072 -1.951614,-3.08266 -2.498891,-3.95988 -0.547277,-0.87721 -1.116909,-1.92619 -1.265849,-2.33106 -0.14894,-0.40487 -0.587486,-1.39864 -0.974547,-2.20838 -0.387061,-0.80973 -1.039643,-2.4108 -1.450181,-3.557931 -0.410538,-1.147128 -1.06108,-3.355502 -1.445648,-4.907498 -0.384568,-1.551996 -0.875133,-4.036417 -1.090143,-5.520935 -0.273723,-1.889897 -0.360072,-3.748221 -0.288009,-6.198317 0.06481,-2.203566 0.206841,-3.605108 0.383589,-3.785244 0.21372,-0.217819 0.393969,-0.181551 0.755655,0.152045 0.261241,0.240954 0.96025,1.447429 1.553352,2.681058 0.593102,1.233628 1.344896,2.863732 1.670654,3.622453 0.325758,0.758722 0.72916,1.465708 0.89645,1.571081 0.186839,0.117687 0.426206,0.01149 0.620565,-0.275307 0.174021,-0.256791 0.428439,-0.600256 0.565373,-0.763255 0.136934,-0.163 0.24897,-0.466651 0.24897,-0.674781 0,-0.256882 0.231974,-0.378419 0.722277,-0.378419 0.397252,0 0.722276,0.09355 0.722276,0.207878 0,0.114333 0.213118,0.307566 0.473595,0.429406 0.260477,0.12184 1.528797,1.269915 2.818488,2.551276 1.689657,1.678743 2.229958,2.352307 1.933574,2.41048 -0.226226,0.0444 -1.888847,-0.09303 -3.694713,-0.305405 -1.805866,-0.212376 -3.535328,-0.386137 -3.84325,-0.386137 -0.307948,0 -0.67249,0.214488 -0.810176,0.476689 -0.172964,0.329384 -0.17339,1.030765 -0.0014,2.269718 0.136916,0.986166 0.527457,3.062844 0.867867,4.61484 0.340411,1.551996 1.000393,3.981205 1.466628,5.398245 0.466234,1.41704 1.358275,3.68063 1.982313,5.03019 0.624039,1.34956 1.601332,3.22668 2.171764,4.17137 0.570431,0.94469 1.72492,2.6154 2.56553,3.71269 0.84061,1.09728 2.477472,2.96147 3.637472,4.14263 1.16,1.18116 2.841874,2.75385 3.737498,3.49487 0.895625,0.74102 2.845772,2.16004 4.33366,3.15338 1.487889,0.99334 2.596911,1.80598 2.464494,1.80587 -0.132418,-1.1e-4 -1.144419,-0.49467 -2.248891,-1.09902 z m 69.059479,-7.42492 c 0,-0.14624 0.78548,-0.9107 1.7455,-1.69879 0.96003,-0.7881 2.31615,-1.85589 3.01361,-2.37288 0.69746,-0.51699 1.38307,-1.15891 1.52358,-1.42648 0.21605,-0.41145 0.11163,-0.62542 -0.67684,-1.38693 -0.51276,-0.49523 -2.17344,-1.74232 -3.6904,-2.77131 -1.51696,-1.02899 -3.94986,-2.48573 -5.40645,-3.23719 -1.4566,-0.75147 -3.46979,-1.69536 -4.47377,-2.09753 -1.00398,-0.40218 -2.84578,-1.00873 -4.0929,-1.34789 -1.24712,-0.33916 -3.3509,-0.81082 -4.67507,-1.04814 -1.68663,-0.30228 -3.63323,-0.42881 -6.50049,-0.42253 -2.95873,0.006 -4.99357,0.15361 -7.34315,0.53096 -1.78763,0.28711 -3.84597,0.68196 -4.57409,0.87746 -0.72812,0.1955 -1.35712,0.32156 -1.39777,0.28012 -0.0407,-0.0414 0.93427,-0.40839 2.16651,-0.81546 1.23223,-0.40707 2.94464,-0.91317 3.80535,-1.12467 0.86072,-0.2115 2.67472,-0.55322 4.03113,-0.75936 1.35641,-0.20615 3.57741,-0.37003 4.93556,-0.36419 1.35815,0.006 3.8778,0.10779 5.59922,0.22654 2.03182,0.14016 4.20776,0.48213 6.20228,0.97473 1.68983,0.41736 3.58581,0.92828 4.21328,1.13539 0.62748,0.20711 1.35755,0.47969 1.62239,0.60573 0.26483,0.12605 1.45659,0.57203 2.64835,0.99108 1.19175,0.41905 3.03356,1.20748 4.0929,1.75206 1.05934,0.54458 2.46778,1.34974 3.12986,1.78924 0.66209,0.43951 1.48193,0.95023 1.82188,1.13495 0.33995,0.18471 1.69422,1.18847 3.00949,2.23058 1.31527,1.04211 2.82476,2.40728 3.35443,3.03371 0.52967,0.62644 1.53183,1.7242 2.22702,2.43948 0.69519,0.71527 1.26399,1.42045 1.26399,1.56706 0,0.14661 -0.29794,0.26021 -0.66209,0.25243 -0.36415,-0.008 -1.36631,-0.21283 -2.22702,-0.45567 -0.86071,-0.24284 -2.48583,-0.79946 -3.61138,-1.23693 -1.12555,-0.43747 -2.24,-0.85365 -2.47657,-0.92485 -0.37176,-0.11189 -0.40975,-0.0171 -0.28005,0.69898 0.0825,0.45563 0.14729,1.25414 0.14391,1.77445 -0.003,0.52032 -0.0468,0.98747 -0.0965,1.03811 -0.0497,0.0507 -1.9523,0.16668 -4.22802,0.25786 -2.91097,0.11664 -4.13767,0.087 -4.13767,-0.10012 z M 78.778733,109.20858 c -0.347765,-1.11841 -0.84142,-3.03695 -1.09701,-4.26341 -0.255589,-1.22647 -0.580958,-3.29246 -0.723042,-4.59111 -0.142083,-1.298645 -0.257444,-3.276479 -0.256358,-4.395187 0.0011,-1.118708 0.109993,-3.027783 0.242015,-4.242388 0.132022,-1.214606 0.406428,-3.226234 0.609792,-4.470285 0.203364,-1.244051 0.586511,-3.121169 0.851438,-4.171373 0.264927,-1.050205 0.648846,-2.461557 0.853155,-3.136337 0.204309,-0.674781 0.569495,-1.66855 0.811526,-2.208375 0.242031,-0.539824 0.84031,-1.975268 1.32951,-3.189873 0.4892,-1.214606 1.365423,-3.012826 1.947163,-3.996046 0.581741,-0.983219 1.05771,-1.842645 1.05771,-1.909835 0,-0.06719 0.752858,-1.250274 1.673017,-2.629077 0.92016,-1.378802 2.301514,-3.171284 3.069676,-3.983293 0.768162,-0.812009 2.177846,-2.219847 3.13263,-3.12853 0.954785,-0.908682 1.902773,-1.65215 2.10664,-1.65215 0.221313,0 0.370668,0.217356 0.370668,0.539432 0,0.296687 -0.282256,1.483688 -0.627236,2.63778 -0.344979,1.154092 -1.050804,3.13649 -1.568498,4.405329 -0.517694,1.268838 -0.899487,2.349555 -0.848429,2.401592 0.05106,0.05204 0.371285,-0.03469 0.711616,-0.19273 0.47484,-0.2205 0.88738,-0.218413 1.773417,0.009 0.635048,0.162973 1.235669,0.426166 1.334713,0.584874 0.09904,0.158708 0.181739,1.917235 0.183766,3.907839 0.002,1.990604 -0.07757,3.611919 -0.176882,3.602921 -0.09931,-0.009 -0.778822,-0.809533 -1.51002,-1.778968 -0.731198,-0.969435 -1.814613,-2.44984 -2.407589,-3.289788 -0.928261,-1.314879 -1.16181,-1.509379 -1.680035,-1.399131 -0.331043,0.07043 -0.901081,0.481611 -1.26675,0.913742 -0.365669,0.432132 -1.540926,2.110718 -2.611683,3.730192 -1.070756,1.619475 -2.643663,4.379942 -3.495347,6.134373 -0.851685,1.75443 -1.916314,4.34927 -2.365843,5.76631 -0.449529,1.41704 -1.052663,3.735833 -1.340299,5.152873 -0.363844,1.792484 -0.562656,3.868962 -0.653388,6.824286 -0.08178,2.663604 -0.01999,5.225973 0.165661,6.870503 0.162841,1.44245 0.506335,3.60364 0.76332,4.80265 0.256985,1.199 0.423603,2.22448 0.370261,2.27884 -0.05334,0.0544 -0.38152,-0.81622 -0.729285,-1.93462 z m 14.171935,-8.53591 c 0.09807,-0.33739 0.50084,-1.220742 0.895046,-1.963001 0.394207,-0.742259 1.375459,-2.34333 2.18056,-3.557936 0.805101,-1.214605 1.945617,-2.815677 2.534478,-3.557936 0.588862,-0.742259 2.001628,-2.232911 3.139488,-3.312561 1.13785,-1.079649 2.57283,-2.459883 3.18883,-3.067186 0.616,-0.607303 1.58593,-1.380234 2.1554,-1.717624 0.56948,-0.337391 1.74852,-1.105318 2.62009,-1.706505 0.87158,-0.601187 2.12639,-1.401586 2.78848,-1.778665 0.66209,-0.377079 1.69133,-0.91809 2.28721,-1.202247 0.59588,-0.284156 1.73346,-0.824616 2.52797,-1.201021 0.7945,-0.376405 1.82375,-0.84851 2.28721,-1.049122 0.46346,-0.200612 1.4927,-0.587844 2.28721,-0.860516 0.7945,-0.272672 2.47379,-0.734295 3.73176,-1.025828 1.25796,-0.291533 2.82892,-0.682388 3.491,-0.868566 0.66209,-0.186179 2.34138,-0.413698 3.73177,-0.505599 1.39038,-0.0919 2.58213,-0.194659 2.64834,-0.228352 0.0662,-0.03369 0.8246,0.03926 1.68532,0.162107 0.86071,0.122852 2.15222,0.30181 2.87003,0.397686 1.30509,0.174319 1.30509,0.174319 -0.0188,1.068941 -0.72811,0.492041 -1.85711,1.168769 -2.50889,1.503839 -0.65177,0.33507 -1.88926,0.887924 -2.74997,1.228565 -0.86072,0.34064 -1.96971,0.748551 -2.46443,0.906467 -0.49472,0.157916 -0.95379,0.376669 -1.02016,0.486117 -0.0664,0.109448 0.19338,0.331577 0.57723,0.49362 0.38384,0.162043 1.0596,0.257671 1.50168,0.212508 0.73617,-0.07521 0.81063,-0.0202 0.88527,0.654009 0.0448,0.404869 0.18958,0.869312 0.32168,1.032095 0.1321,0.162784 0.15477,0.43883 0.0504,0.613437 -0.10439,0.174607 -1.11588,1.29154 -2.24774,2.482073 -1.13187,1.190533 -2.25682,2.276062 -2.49989,2.412286 -0.24307,0.136224 -0.4798,0.209098 -0.52607,0.161943 -0.0463,-0.04716 0.0692,-1.353521 0.25668,-2.903035 0.18745,-1.549514 0.41136,-3.286578 0.49759,-3.860142 0.0862,-0.573564 0.26546,-1.042844 0.3983,-1.042844 0.13284,0 -0.0517,-0.235105 -0.41018,-0.522456 -0.5605,-0.449344 -0.843,-0.499757 -2.01873,-0.360244 -0.75186,0.08922 -2.66712,0.430755 -4.25613,0.758973 -1.58901,0.328218 -4.13504,0.997622 -5.65784,1.487563 -1.5228,0.489942 -4.09239,1.533611 -5.7102,2.319264 -1.61781,0.785654 -3.88205,2.053314 -5.03164,2.817022 -1.14959,0.763709 -2.98274,2.148366 -4.07366,3.077017 -1.09092,0.92865 -2.85476,2.65949 -3.91964,3.846311 -1.064884,1.186821 -2.159015,2.449424 -2.431402,2.805784 -0.272388,0.35636 -1.322511,1.847013 -2.333608,3.312561 -1.011097,1.465548 -1.75812,2.388588 -1.660052,2.051198 z"
         id="path38" /><path
         style="fill:#50729e"
         d="m 99.843249,185.14298 c 0.01653,-4.01495 0.09778,-9.28744 0.180571,-11.71665 0.13151,-3.85888 0.20016,-4.41675 0.54351,-4.41675 0.21615,0 1.56096,1.4182 2.98847,3.15155 1.42751,1.73335 2.75915,3.21556 2.9592,3.2938 0.22832,0.0893 0.62338,-0.17047 1.06124,-0.6978 0.38363,-0.46203 1.42054,-1.94424 2.30423,-3.2938 0.88369,-1.34956 2.37287,-4.00017 3.3093,-5.89024 0.93643,-1.89007 2.05079,-4.5417 2.47636,-5.89251 0.42557,-1.35081 0.98574,-3.50342 1.24481,-4.78357 0.25908,-1.28015 0.58608,-3.77811 0.72666,-5.55101 0.18299,-2.30768 0.18033,-4.11435 -0.009,-6.3593 -0.14573,-1.7247 -0.42895,-4.02838 -0.62939,-5.11928 -0.20043,-1.0909 -0.62371,-3.03477 -0.94061,-4.31972 -0.31691,-1.28495 -1.02654,-3.65895 -1.57695,-5.27556 -0.55042,-1.61661 -1.09303,-3.27055 -1.2058,-3.67542 -0.19465,-0.6988 -0.18611,-0.71124 0.16842,-0.24537 0.2054,0.26991 0.9142,1.58172 1.57511,2.91513 0.66091,1.33341 1.68367,3.73766 2.27281,5.34277 0.58913,1.60511 1.39327,4.19163 1.78697,5.74782 0.3937,1.5562 0.89045,4.176 1.1039,5.82179 0.29198,2.25143 0.35567,4.11635 0.25718,7.53179 -0.10238,3.55063 -0.266,5.19519 -0.75116,7.5499 -0.34114,1.65576 -0.99123,4.14018 -1.44462,5.52094 -0.4534,1.38075 -1.35699,3.73819 -2.00798,5.23875 -0.65098,1.50056 -1.94683,4.04019 -2.87966,5.64362 -0.93283,1.60344 -2.5082,4.07474 -3.50082,5.49178 -0.99262,1.41704 -2.52878,3.45978 -3.41367,4.53943 -0.8849,1.07965 -2.58406,3.03958 -3.77592,4.35541 -1.19185,1.31582 -2.32132,2.3924 -2.50993,2.3924 -0.289723,0 -0.338268,-1.13262 -0.312881,-7.2999 z m 3.663391,1.16553 c 0.84933,-0.80974 1.65281,-1.47225 1.7855,-1.47225 0.1327,0 0.63586,-0.49079 1.11815,-1.09064 0.48228,-0.59984 1.17544,-1.40038 1.54034,-1.77896 0.36491,-0.37859 1.17031,-1.37324 1.78978,-2.21033 0.61946,-0.8371 1.36263,-1.9965 1.65146,-2.57644 0.28884,-0.57994 0.82849,-1.50582 1.19921,-2.05751 0.37072,-0.55168 1.16846,-2.06711 1.77275,-3.36762 0.60428,-1.3005 1.0987,-2.4335 1.0987,-2.51778 0,-0.0843 0.15211,-0.50118 0.33803,-0.92644 0.18591,-0.42527 0.61812,-1.62651 0.96046,-2.66944 0.34234,-1.04293 0.89864,-3.08567 1.23624,-4.53944 0.33759,-1.45376 0.72495,-3.08672 0.86079,-3.62881 0.13585,-0.54208 0.29749,-1.53585 0.35921,-2.20837 0.0617,-0.67252 0.19026,-2.23135 0.28563,-3.46406 0.0954,-1.2327 0.10083,-3.71712 0.0122,-5.52093 -0.0887,-1.80381 -0.38931,-4.41403 -0.66804,-5.8005 -0.27873,-1.38646 -0.78299,-3.41194 -1.12057,-4.50105 -0.33758,-1.08912 -0.65801,-1.93514 -0.71206,-1.88005 -0.0541,0.0551 0.10887,1.19722 0.36206,2.53806 0.25319,1.34084 0.57619,3.51012 0.71778,4.82062 0.14158,1.31051 0.25742,3.52178 0.25742,4.91394 0,1.39216 -0.11045,3.46686 -0.24544,4.61045 -0.13499,1.14359 -0.47412,3.12823 -0.75362,4.41031 -0.27949,1.28209 -0.88032,3.43525 -1.33517,4.78481 -0.45485,1.34956 -1.44166,3.72204 -2.19291,5.27217 -0.75125,1.55013 -2.30027,4.25539 -3.44227,6.01169 -1.14199,1.75629 -2.40555,3.55212 -2.8079,3.99073 -0.40235,0.43861 -0.95155,0.79747 -1.22045,0.79747 -0.27806,0 -0.72653,-0.34392 -1.0399,-0.79747 -0.30304,-0.43861 -1.0239,-1.40477 -1.60191,-2.14703 -0.578,-0.74226 -1.42624,-1.81884 -1.88497,-2.39241 -0.45874,-0.57356 -0.95154,-1.04284 -1.09512,-1.04284 -0.18367,0 -0.21095,1.14557 -0.092,3.86465 0.13465,3.07861 0.24596,3.92514 0.54725,4.16201 0.24201,0.19027 0.77801,0.2443 1.48837,0.15003 0.61059,-0.081 1.29976,-0.24632 1.53149,-0.36732 0.23173,-0.12101 0.42133,-0.12707 0.42133,-0.0135 0,0.11359 -0.41764,1.30448 -0.92809,2.64641 -0.51044,1.34194 -1.15153,3.1576 -1.42464,4.03482 -0.27311,0.87721 -0.5646,2.00901 -0.64776,2.51509 -0.0915,0.557 -0.0553,0.92016 0.0917,0.92016 0.13358,0 0.93777,-0.66251 1.78709,-1.47225 z M 50.817082,173.30086 c -0.131426,-0.21673 1.235673,-1.73547 4.359145,-4.84268 2.502841,-2.4898 6.188702,-6.11716 8.190803,-8.06079 2.0021,-1.94363 3.77875,-3.53387 3.948109,-3.53387 0.240809,0 0.27485,0.6017 0.156174,2.76047 -0.08346,1.51826 -0.224806,3.63322 -0.314093,4.69993 -0.16234,1.93946 -0.16234,1.93946 1.494397,1.76647 0.911205,-0.0952 2.931354,-0.44727 4.489221,-0.7825 1.557866,-0.33523 4.106565,-1.05616 5.663776,-1.60205 1.55721,-0.5459 3.698023,-1.40637 4.757362,-1.91216 1.059339,-0.50578 2.933461,-1.55592 4.164715,-2.33364 1.231255,-0.77771 3.07306,-2.08702 4.092901,-2.90957 1.019841,-0.82255 2.730433,-2.4033 3.801316,-3.51278 1.070883,-1.10948 2.715567,-3.04894 3.654853,-4.30992 0.939289,-1.26098 2.318029,-3.28645 3.063879,-4.50106 0.74584,-1.2146 2.22426,-3.95742 3.28538,-6.09515 1.06111,-2.13773 1.97421,-3.84101 2.0291,-3.78507 0.0549,0.056 -0.0641,0.74296 -0.26438,1.5267 -0.2003,0.78374 -0.83689,2.65714 -1.41466,4.1631 -0.57776,1.50596 -1.56123,3.77458 -2.18548,5.04136 -0.62425,1.26679 -1.65866,3.16375 -2.29868,4.21547 -0.64003,1.05172 -1.844341,2.82645 -2.676255,3.94384 -0.831914,1.11739 -2.545609,3.12188 -3.808211,4.45442 -1.262603,1.33254 -3.162373,3.11201 -4.221712,3.95438 -1.059339,0.84238 -2.710151,2.04167 -3.66847,2.6651 -0.95832,0.62343 -2.908467,1.72846 -4.33366,2.45563 -1.425193,0.72716 -3.63451,1.71938 -4.909593,2.20493 -1.275082,0.48554 -3.488437,1.22739 -4.918566,1.64855 -1.430129,0.42116 -3.907978,1.02512 -5.506331,1.34212 -1.598354,0.31701 -4.368708,0.74421 -6.156342,0.94935 -1.787635,0.20513 -4.832665,0.44772 -6.766734,0.53907 -2.747198,0.12977 -3.558377,0.097 -3.707964,-0.14965 z m 17.095567,-2.32971 c 0.926921,-0.22922 2.118678,-0.52778 2.648347,-0.66345 0.52967,-0.13567 1.342231,-0.40453 1.805692,-0.59746 0.463461,-0.19294 1.601047,-0.55318 2.527968,-0.80054 0.926922,-0.24736 2.902396,-1.00119 4.389943,-1.67518 1.487547,-0.67399 2.870191,-1.36547 3.072542,-1.53662 0.20235,-0.17116 0.71873,-0.50784 1.147511,-0.74819 0.42878,-0.24035 1.118484,-0.60093 1.532676,-0.80131 0.414191,-0.20037 0.826865,-0.48599 0.917054,-0.63472 0.09019,-0.14873 0.32271,-0.27041 0.516713,-0.27041 0.194004,0 0.883397,-0.37203 1.531985,-0.82674 0.648588,-0.4547 1.702306,-1.25485 2.341595,-1.7781 0.639289,-0.52325 1.382476,-1.2002 1.651526,-1.50433 0.269051,-0.30412 0.595259,-0.55296 0.724907,-0.55296 0.129648,0 1.11464,-0.91095 2.18887,-2.02434 1.074231,-1.11339 2.408004,-2.63164 2.963941,-3.3739 0.555937,-0.74226 1.414672,-1.90166 1.9083,-2.57644 0.493631,-0.67478 1.206561,-1.77209 1.584291,-2.43846 0.37773,-0.66637 1.00616,-1.82576 1.39652,-2.57643 0.39036,-0.75067 0.80456,-1.6133 0.92045,-1.91695 0.11589,-0.30365 0.16378,-0.55209 0.10643,-0.55209 -0.0573,0 -0.40277,0.52449 -0.7676,1.16553 -0.36483,0.64104 -1.19782,1.93846 -1.85109,2.88315 -0.65327,0.9447 -2.095998,2.79095 -3.206064,4.10279 -1.110067,1.31184 -3.071437,3.30935 -4.3586,4.4389 -1.287163,1.12955 -3.191837,2.635 -4.232609,3.34545 -1.040772,0.71045 -3.04509,1.87202 -4.454039,2.58127 -1.40895,0.70924 -3.835835,1.74452 -5.393078,2.30062 -1.557244,0.5561 -3.561562,1.18578 -4.45404,1.39931 -0.892478,0.21352 -2.754085,0.60214 -4.136905,0.86359 -1.38282,0.26146 -2.855724,0.47538 -3.27312,0.47538 -0.435044,0 -0.932449,-0.19545 -1.165578,-0.45799 -0.335861,-0.37824 -0.366794,-0.64529 -0.177638,-1.53359 0.125972,-0.59159 0.360792,-2.32151 0.521824,-3.84428 0.161032,-1.52276 0.221104,-2.84172 0.133494,-2.93101 -0.08761,-0.0893 -0.92017,0.60452 -1.850133,1.54179 -0.929963,0.93728 -2.074587,2.29047 -2.543609,3.0071 -0.614073,0.93825 -0.812682,1.46574 -0.709557,1.8845 0.07877,0.31984 0.305698,0.74714 0.504292,0.94954 0.270054,0.27523 0.546563,0.31379 1.096848,0.15294 0.404673,-0.11828 0.892073,-0.15393 1.083112,-0.0792 0.191038,0.0747 0.347343,0.22093 0.347343,0.32492 0,0.104 -0.135427,0.2978 -0.300949,0.43067 -0.165521,0.13287 -0.61483,0.3182 -0.998463,0.41184 -0.383634,0.0936 -1.900415,0.73831 -3.370625,1.43259 -1.47021,0.69429 -3.139493,1.58092 -3.709518,1.9703 -0.570025,0.38938 -0.99493,0.83652 -0.944232,0.99365 0.0507,0.15712 0.787936,0.3572 1.638307,0.4446 0.850371,0.0874 3.225422,0.12566 5.277891,0.085 2.458902,-0.0487 4.306603,-0.21609 5.417075,-0.49071 z m 72.023941,-8.62459 c -4.32393,-4.55052 -7.8617,-8.43384 -7.8617,-8.6296 0,-0.29802 0.38188,-0.32886 2.3474,-0.18956 1.29107,0.0915 3.25192,0.27672 4.35746,0.4116 1.45654,0.1777 2.10014,0.16903 2.33718,-0.0315 0.20897,-0.17676 0.28024,-0.557 0.19734,-1.05276 -0.0714,-0.42684 -0.34681,-1.93547 -0.61208,-3.35251 -0.26526,-1.41704 -0.74322,-3.53389 -1.06212,-4.70412 -0.31891,-1.17024 -0.86521,-2.93693 -1.21399,-3.926 -0.34878,-0.98907 -1.17492,-2.9025 -1.83586,-4.25206 -0.66094,-1.34956 -1.76488,-3.3371 -2.4532,-4.41675 -0.68832,-1.07965 -2.07386,-2.96164 -3.07897,-4.18221 -1.00511,-1.22057 -2.62303,-2.94026 -3.59537,-3.82153 -0.97235,-0.88128 -2.47387,-2.16361 -3.33673,-2.84963 -0.86285,-0.68601 -2.70466,-1.9864 -4.0929,-2.88974 -1.38824,-0.90334 -4.28462,-2.51892 -6.4364,-3.59016 -2.15179,-1.07125 -3.91234,-2.00365 -3.91234,-2.072 0,-0.0683 0.40628,-0.0479 0.90285,0.0455 0.49656,0.0934 1.87792,0.53225 3.06968,0.9753 1.19175,0.44306 2.86868,1.10053 3.72651,1.46104 0.85783,0.36052 2.2121,0.98975 3.00949,1.39828 0.79739,0.40854 2.4478,1.33991 3.66757,2.06972 1.21978,0.72982 3.11576,2.00152 4.21328,2.82601 1.09753,0.82449 3.16976,2.67006 4.60496,4.10126 1.4352,1.4312 3.28183,3.48553 4.10363,4.56518 0.82179,1.07965 1.88017,2.57031 2.35194,3.31257 0.47176,0.74225 1.40574,2.39853 2.0755,3.68062 0.66975,1.28208 1.51336,3.04878 1.87467,3.926 0.36131,0.87721 1.06363,2.81746 1.56069,4.31166 0.49707,1.4942 1.23495,4.19946 1.63973,6.01168 0.40479,1.81223 0.89609,4.39915 1.09179,5.74871 0.1957,1.34956 0.47946,4.05482 0.63059,6.01169 0.15113,1.95686 0.23972,4.37724 0.19685,5.37862 -0.0443,1.03426 -0.19192,1.85905 -0.34183,1.90952 -0.14515,0.0489 -3.80168,-3.63432 -8.12562,-8.18485 z m 6.56865,1.26755 c 0.11627,-1.05668 0.16985,-2.04168 0.11907,-2.18888 -0.0508,-0.14721 -0.14481,-1.48225 -0.20894,-2.96677 -0.0641,-1.48452 -0.22133,-3.41685 -0.34932,-4.29406 -0.12798,-0.87722 -0.56479,-2.89179 -0.97068,-4.47684 -0.40588,-1.58504 -1.13102,-3.84862 -1.61141,-5.03018 -0.48039,-1.18156 -1.13532,-2.85472 -1.45539,-3.71814 -0.32008,-0.86342 -0.82171,-1.91024 -1.11473,-2.32627 -0.29302,-0.41603 -0.83198,-1.3564 -1.19768,-2.08971 -0.36569,-0.7333 -1.06518,-1.94788 -1.5544,-2.69906 -0.48923,-0.75118 -1.40728,-2.07173 -2.04012,-2.93455 -0.63284,-0.86282 -2.20852,-2.7165 -3.50153,-4.11929 -1.293,-1.40279 -3.1093,-3.19583 -4.03622,-3.98454 -0.92693,-0.78871 -2.8271,-2.15328 -4.22262,-3.03238 -1.39552,-0.8791 -3.11267,-1.89551 -3.81589,-2.25869 -0.70323,-0.36318 -1.33242,-0.60548 -1.3982,-0.53843 -0.0658,0.067 0.87753,0.79487 2.09625,1.61738 1.21873,0.82251 2.88136,2.0094 3.69475,2.63754 0.81338,0.62814 2.77897,2.47521 4.36798,4.10459 2.02464,2.07609 3.44054,3.8067 4.73203,5.78383 1.0136,1.55172 2.23925,3.63287 2.72367,4.62478 0.48441,0.99191 1.24501,2.72434 1.69022,3.84984 0.4452,1.1255 1.13761,3.24003 1.53868,4.69896 0.40108,1.45893 0.95751,3.88707 1.23653,5.39588 0.27901,1.5088 0.4736,3.22029 0.43243,3.80331 -0.0711,1.00697 -0.11554,1.06399 -0.88769,1.13923 -0.44706,0.0436 -2.33045,-0.0981 -4.1853,-0.31479 -1.85485,-0.2167 -3.43375,-0.33153 -3.50865,-0.25519 -0.0749,0.0763 0.99398,1.29458 2.3753,2.7072 1.38132,1.41261 2.61324,2.56839 2.7376,2.56839 0.12436,0 0.40543,-0.1654 0.62461,-0.36756 0.21918,-0.20216 0.91129,-0.63214 1.53802,-0.95551 1.1395,-0.58795 1.1395,-0.58795 1.72709,0.76615 0.32317,0.74476 0.58895,1.42318 0.59063,1.50761 0.002,0.0844 0.32404,0.79859 0.71636,1.58703 0.39232,0.78844 0.95052,1.83742 1.24045,2.33106 0.28993,0.49364 0.69089,1.09337 0.89103,1.33273 0.20082,0.24016 0.45595,0.3414 0.56928,0.22589 0.11296,-0.11513 0.30052,-1.07388 0.41679,-2.13056 z M 64.439325,144.69613 c -1.248241,-0.18517 -3.198387,-0.57348 -4.333659,-0.86291 -1.135272,-0.28943 -3.147546,-0.9055 -4.47172,-1.36904 -1.324174,-0.46355 -4.141053,-1.7063 -6.259731,-2.76167 -2.118678,-1.05537 -5.15224,-2.7964 -6.741248,-3.86894 -1.589009,-1.07254 -4.295769,-3.09461 -6.015022,-4.49348 -1.719254,-1.39887 -4.075682,-3.47653 -5.236506,-4.61702 -1.160824,-1.1405 -2.11059,-2.22351 -2.11059,-2.40671 0,-0.26439 0.68267,-0.33299 3.310435,-0.33268 1.820739,2.1e-4 6.961683,0.0732 11.42432,0.16216 4.462637,0.089 8.25175,0.24861 8.420251,0.35475 0.230747,0.14534 0.162874,0.34864 -0.27498,0.82365 -0.31974,0.34687 -1.860768,1.69758 -3.424505,3.00156 -1.563737,1.30398 -2.843158,2.51586 -2.843158,2.69305 0,0.1772 0.821426,0.94129 1.825391,1.698 1.003965,0.7567 2.664956,1.90652 3.691092,2.55515 1.026136,0.64863 2.958576,1.73827 4.294311,2.42143 1.335735,0.68315 3.692365,1.68621 5.236956,2.22902 1.54459,0.54281 3.867768,1.20338 5.162617,1.46794 1.294849,0.26455 3.750632,0.60619 5.457295,0.7592 2.23694,0.20055 3.978012,0.20629 6.237953,0.0206 1.724212,-0.1417 4.324407,-0.48876 5.778213,-0.77126 1.453806,-0.28249 3.780869,-0.84372 5.171252,-1.24717 1.390382,-0.40345 3.580008,-1.12533 4.865836,-1.60418 1.285827,-0.47886 2.471629,-0.8252 2.635117,-0.76966 0.163487,0.0555 -0.292676,0.44127 -1.013694,0.85717 -0.721019,0.41591 -2.461439,1.26344 -3.8676,1.8834 -1.406162,0.61997 -3.843845,1.56156 -5.417075,2.09242 -1.57323,0.53087 -3.943833,1.18875 -5.268007,1.46196 -1.324174,0.27321 -3.325649,0.61283 -4.447723,0.75471 -1.122074,0.14189 -3.72227,0.24611 -5.778213,0.23161 -2.055943,-0.0145 -4.759367,-0.17787 -6.007608,-0.36303 z m 14.788991,-1.05189 c 0.662087,-0.13618 1.920045,-0.41854 2.795462,-0.62748 0.875418,-0.20894 2.321412,-0.6096 3.213322,-0.89037 0.891909,-0.28076 1.582551,-0.55033 1.534759,-0.59904 -0.04779,-0.0487 -1.114592,0.11725 -2.370666,0.3688 -1.256074,0.25155 -3.475527,0.58941 -4.932118,0.75079 -1.586212,0.17574 -4.048436,0.23644 -6.139351,0.15134 -1.920053,-0.0781 -4.736931,-0.37366 -6.259731,-0.6567 -1.5228,-0.28305 -4.014655,-0.94054 -5.537454,-1.46111 -1.5228,-0.52056 -3.709721,-1.39645 -4.859823,-1.94642 -1.150103,-0.54997 -3.046079,-1.57345 -4.213281,-2.2744 -1.167201,-0.70095 -3.097258,-1.981 -4.289014,-2.84456 -1.191756,-0.86357 -2.356428,-1.79516 -2.588158,-2.07021 -0.23173,-0.27505 -0.421328,-0.64686 -0.421328,-0.82624 0,-0.17938 1.46261,-1.50082 3.250245,-2.93652 1.787634,-1.43571 3.250245,-2.65694 3.250245,-2.71386 0,-0.0569 -1.81472,-0.0957 -4.032712,-0.0862 -2.3038,0.01 -3.826274,0.10223 -3.551193,0.21547 0.454871,0.18725 0.446341,0.21496 -0.15415,0.50062 -0.533257,0.25368 -0.627857,0.44627 -0.587189,1.19544 0.02666,0.49117 0.186064,1.15093 0.354225,1.46614 0.168161,0.31521 0.253298,0.62657 0.189192,0.6919 -0.06411,0.0653 -0.533334,-0.096 -1.042731,-0.35857 -0.509397,-0.26255 -2.388787,-0.97739 -4.176422,-1.58852 -1.787634,-0.61114 -3.656525,-1.17002 -4.15309,-1.24195 -0.529149,-0.0767 -0.902846,-0.0288 -0.902846,0.11563 0,0.13553 0.35211,0.60839 0.782466,1.0508 0.430357,0.44241 1.671395,1.73242 2.757863,2.86668 1.086468,1.13426 2.40374,2.42484 2.927271,2.86795 0.523531,0.44311 1.684206,1.35662 2.579278,2.03002 0.895071,0.67339 1.907141,1.29381 2.249044,1.37869 0.341903,0.0849 0.911222,0.39929 1.265152,0.69868 0.35393,0.29939 1.530846,1.00997 2.615368,1.57905 1.084522,0.56909 2.690919,1.30429 3.56977,1.63377 0.878852,0.32948 1.814596,0.69372 2.079431,0.80941 0.264834,0.11569 0.969054,0.35324 1.564932,0.52789 0.595879,0.17465 1.195169,0.40157 1.331756,0.50427 0.136588,0.1027 1.05749,0.36548 2.046451,0.58396 0.98896,0.21848 2.339817,0.49072 3.001904,0.60497 0.662087,0.11425 1.908014,0.33587 2.768727,0.49247 0.860713,0.15661 2.594177,0.36015 3.852142,0.45233 1.257965,0.0922 3.80399,0.0922 5.657833,1.4e-4 1.853844,-0.0921 3.912332,-0.27885 4.574419,-0.41503 z m 4.454039,-12.27505 c -1.125548,-0.38099 -2.913182,-1.04673 -3.972521,-1.47944 -1.059339,-0.4327 -3.136271,-1.43752 -4.615404,-2.23294 -1.479132,-0.79541 -3.320938,-1.85731 -4.092901,-2.35976 -0.771962,-0.50246 -2.190636,-1.50603 -3.152609,-2.23017 -0.961972,-0.72414 -2.787845,-2.32877 -4.057495,-3.56583 -1.26965,-1.23707 -3.008218,-3.13624 -3.863484,-4.22039 -0.855266,-1.08415 -2.026984,-2.69013 -2.603818,-3.56885 -0.576834,-0.87872 -1.696814,-2.86625 -2.488843,-4.41675 -0.792029,-1.55049 -1.934227,-4.15661 -2.538217,-5.79138 -0.60399,-1.634762 -1.472069,-4.450439 -1.929064,-6.257058 -0.456995,-1.806619 -1.056415,-4.664996 -1.332045,-6.351949 -0.275629,-1.686952 -0.609291,-4.337001 -0.741469,-5.888997 -0.132179,-1.551996 -0.241252,-4.174441 -0.242384,-5.827654 -0.0011,-1.656246 0.09688,-3.005843 0.218291,-3.005843 0.121193,0 3.640441,3.561004 7.82055,7.913341 4.18011,4.352337 7.778965,8.173799 7.997455,8.492138 0.333122,0.485354 0.343503,0.614939 0.0643,0.802668 -0.183124,0.12313 -0.657978,0.171056 -1.05523,0.106503 -0.397252,-0.06455 -2.272957,-0.247659 -4.168233,-0.406904 -2.406321,-0.202185 -3.522211,-0.21182 -3.698709,-0.03194 -0.176499,0.179882 -0.132347,0.985843 0.146344,2.671423 0.219504,1.327602 0.664147,3.49106 0.988095,4.807682 0.323948,1.316623 0.814339,3.08332 1.089759,3.926 0.275419,0.84268 0.890204,2.4707 1.366187,3.61783 0.475984,1.14712 1.406193,3.07016 2.067132,4.27341 0.66094,1.20326 1.985263,3.246 2.942941,4.53944 0.957677,1.29344 2.917878,3.51192 4.356,4.92996 1.438123,1.41804 3.434553,3.21214 4.436513,3.9869 1.00196,0.77476 3.006277,2.1362 4.454039,3.02543 1.447762,0.88923 4.176161,2.38917 6.063109,3.3332 1.886947,0.94403 3.430814,1.76254 3.430814,1.81891 0,0.0564 -0.189598,0.0983 -0.421328,0.0931 -0.231731,-0.005 -1.342231,-0.32109 -2.467779,-0.70208 z m -8.122327,-4.78302 c -1.487888,-0.99334 -3.438035,-2.41236 -4.33366,-3.15338 -0.895624,-0.74102 -2.577498,-2.31371 -3.737498,-3.49487 -1.16,-1.18116 -2.796862,-3.04535 -3.637472,-4.14263 -0.84061,-1.09729 -1.995099,-2.768 -2.56553,-3.71269 -0.570432,-0.94469 -1.547725,-2.82181 -2.171764,-4.17137 -0.624038,-1.34956 -1.516079,-3.61315 -1.982313,-5.03019 -0.466235,-1.41704 -1.126217,-3.846249 -1.466628,-5.398245 -0.34041,-1.551996 -0.730951,-3.628674 -0.867867,-4.61484 -0.172013,-1.238953 -0.171587,-1.940334 0.0014,-2.269718 0.137686,-0.262201 0.502228,-0.476689 0.810176,-0.476689 0.307922,0 2.037384,0.173761 3.84325,0.386137 1.805866,0.212375 3.468487,0.349807 3.694713,0.305405 0.296384,-0.05817 -0.243917,-0.731737 -1.933574,-2.41048 -1.289691,-1.281361 -2.558011,-2.429436 -2.818488,-2.551276 -0.260477,-0.12184 -0.473595,-0.315073 -0.473595,-0.429406 0,-0.114333 -0.325024,-0.207878 -0.722276,-0.207878 -0.490303,0 -0.722277,0.121537 -0.722277,0.378419 0,0.20813 -0.112036,0.511781 -0.24897,0.674781 -0.136934,0.162999 -0.391352,0.506464 -0.565373,0.763255 -0.194359,0.286802 -0.433726,0.392994 -0.620565,0.275307 -0.16729,-0.105373 -0.570692,-0.812359 -0.89645,-1.571081 -0.325758,-0.758721 -1.077552,-2.388825 -1.670654,-3.622453 -0.593102,-1.233629 -1.292111,-2.440104 -1.553352,-2.681058 -0.361686,-0.333596 -0.541935,-0.369864 -0.755655,-0.152045 -0.176748,0.180136 -0.318778,1.581678 -0.383589,3.785244 -0.07206,2.450096 0.01429,4.30842 0.288009,6.198317 0.21501,1.484518 0.705575,3.968939 1.090143,5.520935 0.384568,1.551996 1.03511,3.76037 1.445648,4.907498 0.410538,1.147131 1.06312,2.748201 1.450181,3.557931 0.387061,0.80974 0.825607,1.80351 0.974547,2.20838 0.14894,0.40487 0.718572,1.45385 1.265849,2.33106 0.547277,0.87722 1.671778,2.65916 2.498891,3.95988 0.827113,1.30072 2.305307,3.34347 3.284876,4.53944 0.979569,1.19597 2.562789,2.92325 3.518267,3.83839 0.955478,0.91515 2.517109,2.24291 3.470291,2.95057 0.953183,0.70767 2.400352,1.69858 3.215931,2.20203 0.815579,0.50345 2.386531,1.40983 3.491004,2.01417 1.104472,0.60435 2.116473,1.09891 2.248891,1.09902 0.132417,1.1e-4 -0.976605,-0.81253 -2.464494,-1.80587 z m 6.930636,-6.7921 c -0.413312,-0.6846 -1.229269,-2.3282 -1.813238,-3.65245 -0.58397,-1.32425 -1.449685,-3.54357 -1.923812,-4.93181 -0.474126,-1.38825 -1.122709,-3.5817 -1.441295,-4.87433 -0.318585,-1.29264 -0.693455,-3.01276 -0.833043,-3.8225 -0.139587,-0.80974 -0.366255,-2.795015 -0.503705,-4.411728 -0.175307,-2.061997 -0.172326,-4.00308 0.01,-6.502435 0.142942,-1.959626 0.517487,-4.777562 0.832322,-6.26208 0.314836,-1.484518 0.862777,-3.634309 1.217649,-4.777313 0.354871,-1.143004 1.129663,-3.240959 1.721761,-4.662123 0.592098,-1.421164 1.572467,-3.522493 2.178598,-4.66962 0.606132,-1.147128 1.90929,-3.355502 2.895907,-4.907498 0.986618,-1.551997 2.61359,-3.870789 3.615495,-5.152873 1.001904,-1.282084 2.899093,-3.576003 4.215974,-5.097598 1.316881,-1.521595 2.664514,-2.983139 2.99474,-3.247874 0.330225,-0.264736 0.702349,-0.417129 0.82694,-0.338651 0.139893,0.08812 0.164668,4.098687 0.06478,10.486434 -0.08896,5.689061 -0.230722,10.941939 -0.315018,11.673065 -0.0843,0.731125 -0.265649,1.367405 -0.403006,1.413956 -0.137357,0.04655 -1.437455,-1.398292 -2.889107,-3.210763 -1.451652,-1.81247 -2.801879,-3.367444 -3.000505,-3.455496 -0.235103,-0.104223 -0.596223,0.124219 -1.034742,0.65457 -0.370481,0.448066 -1.302387,1.753224 -2.0709,2.900352 -0.768514,1.147128 -2.04974,3.300292 -2.84717,4.78481 -0.797429,1.484519 -1.836348,3.692893 -2.308708,4.907498 -0.47236,1.214606 -1.12394,3.146933 -1.447956,4.294061 -0.324017,1.147128 -0.764557,3.131062 -0.978979,4.408742 -0.214422,1.277681 -0.458494,3.706892 -0.542384,5.398248 -0.09166,1.848057 -0.03554,4.250176 0.140646,6.019696 0.161244,1.61947 0.564146,4.26346 0.895337,5.87554 0.33119,1.61207 1.213343,4.81422 1.960339,7.11587 0.746996,2.30166 1.433372,4.43327 1.525279,4.73692 0.09191,0.30365 0.131597,0.5521 0.0882,0.5521 -0.0434,0 -0.417071,-0.56013 -0.830382,-1.24472 z m -3.352907,-10.92971 c -0.256985,-1.19901 -0.600479,-3.3602 -0.76332,-4.80265 -0.185653,-1.64453 -0.247437,-4.206897 -0.165661,-6.870501 0.09073,-2.955324 0.289544,-5.031802 0.653388,-6.824286 0.287636,-1.41704 0.89077,-3.735833 1.340299,-5.152873 0.449529,-1.41704 1.514158,-4.01188 2.365843,-5.76631 0.851684,-1.754431 2.424591,-4.514898 3.495347,-6.134373 1.070757,-1.619474 2.246014,-3.29806 2.611683,-3.730192 0.365669,-0.432131 0.935707,-0.843315 1.26675,-0.913742 0.518225,-0.110248 0.751774,0.08425 1.680035,1.399131 0.592976,0.839948 1.676391,2.320353 2.407589,3.289788 0.731198,0.969435 1.410707,1.769971 1.51002,1.778968 0.09931,0.009 0.17891,-1.612317 0.176882,-3.602921 -0.002,-1.990604 -0.08472,-3.749131 -0.183766,-3.907839 -0.09904,-0.158708 -0.699665,-0.421901 -1.334713,-0.584874 -0.886037,-0.227385 -1.298577,-0.229472 -1.773417,-0.009 -0.340331,0.158038 -0.660558,0.244767 -0.711616,0.19273 -0.05106,-0.05204 0.330735,-1.132754 0.848429,-2.401592 0.517694,-1.268839 1.223519,-3.251237 1.568498,-4.405329 0.34498,-1.154092 0.627236,-2.341093 0.627236,-2.63778 0,-0.322076 -0.149355,-0.539432 -0.370668,-0.539432 -0.203867,0 -1.151855,0.743468 -2.10664,1.65215 -0.954784,0.908683 -2.364468,2.316521 -3.13263,3.12853 -0.768162,0.812009 -2.149516,2.604491 -3.069676,3.983293 -0.920159,1.378803 -1.673017,2.561887 -1.673017,2.629077 0,0.06719 -0.475969,0.926616 -1.05771,1.909835 -0.58174,0.98322 -1.457963,2.78144 -1.947163,3.996046 -0.4892,1.214605 -1.087479,2.650049 -1.32951,3.189873 -0.242031,0.539825 -0.607217,1.533594 -0.811526,2.208375 -0.204309,0.67478 -0.588228,2.086132 -0.853155,3.136337 -0.264927,1.050204 -0.648074,2.927322 -0.851438,4.171373 -0.203364,1.244051 -0.47777,3.255679 -0.609792,4.470285 -0.132022,1.214605 -0.240928,3.12368 -0.242015,4.242388 -0.0011,1.118708 0.114275,3.096542 0.256358,4.395185 0.142084,1.29865 0.467453,3.36464 0.723042,4.59111 0.25559,1.22646 0.749245,3.145 1.09701,4.26341 0.347765,1.1184 0.675944,1.98899 0.729285,1.93462 0.05334,-0.0544 -0.113276,-1.07984 -0.370261,-2.27884 z m 68.947593,11.6927 c -3.57207,-0.11495 -4.0929,-0.18267 -4.0929,-0.53219 0,-0.22026 1.46261,-1.62879 3.25025,-3.13006 1.78763,-1.50127 3.25024,-2.89947 3.25024,-3.10711 0,-0.20765 -1.30009,-1.30511 -2.8891,-2.4388 -1.58901,-1.1337 -4.36789,-2.8421 -6.17529,-3.79644 -1.80741,-0.95435 -4.58783,-2.17079 -6.17872,-2.70321 -1.5909,-0.53242 -4.06658,-1.21932 -5.50152,-1.52645 -2.25669,-0.48302 -3.32417,-0.55866 -7.90567,-0.56018 -3.36295,-0.001 -5.95593,0.11784 -7.10239,0.32584 -0.99313,0.18019 -3.10579,0.64122 -4.6948,1.02452 -1.58901,0.38331 -4.50802,1.25669 -6.48669,1.94087 -1.97868,0.68417 -3.637279,1.24394 -3.685785,1.24394 -0.04851,0 -0.01933,-0.11356 0.06483,-0.25235 0.08416,-0.13879 1.092725,-0.73269 2.241235,-1.31977 1.14851,-0.58708 3.0096,-1.45554 4.13576,-1.92991 1.12616,-0.47437 3.29299,-1.2575 4.81518,-1.74029 1.52219,-0.48278 3.85103,-1.09658 5.1752,-1.36399 1.32418,-0.26741 3.52957,-0.60188 4.90088,-0.743257 1.37131,-0.14138 3.43303,-0.257054 4.58161,-0.257054 1.14857,0 3.43555,0.169988 5.08216,0.377751 1.64662,0.20776 4.26099,0.70379 5.80971,1.10228 1.54872,0.39849 3.66518,1.04397 4.70325,1.43441 1.03806,0.39044 2.91663,1.18247 4.1746,1.76008 1.25796,0.5776 3.31645,1.65537 4.57441,2.39503 1.25797,0.73966 3.26229,2.01071 4.45404,2.82457 1.19176,0.81386 2.92522,2.08929 3.85215,2.83431 0.92692,0.74501 2.38953,1.95304 3.25024,2.68451 0.86071,0.73147 2.45875,2.20727 3.55119,3.27957 1.09245,1.0723 1.98627,2.05315 1.98627,2.17968 0,0.13936 -2.96607,0.20942 -7.52372,0.17773 -4.13804,-0.0288 -9.36552,-0.11159 -11.61662,-0.18403 z m 5.11545,-0.8467 c 0.0497,-0.0506 0.0931,-0.51779 0.0965,-1.03811 0.003,-0.52031 -0.0614,-1.31882 -0.14391,-1.77445 -0.1297,-0.71605 -0.0917,-0.81087 0.28005,-0.69898 0.23657,0.0712 1.35102,0.48738 2.47657,0.92485 1.12555,0.43747 2.75067,0.99409 3.61138,1.23693 0.86071,0.24284 1.86287,0.44789 2.22702,0.45567 0.36415,0.008 0.66209,-0.10582 0.66209,-0.25243 0,-0.14661 -0.5688,-0.85179 -1.26399,-1.56706 -0.69519,-0.71528 -1.69735,-1.81304 -2.22702,-2.43948 -0.52967,-0.62643 -2.03916,-1.9916 -3.35443,-3.03371 -1.31527,-1.04211 -2.66954,-2.04587 -3.00949,-2.23058 -0.33995,-0.18472 -1.15979,-0.69544 -1.82188,-1.13495 -0.66208,-0.4395 -2.07052,-1.24466 -3.12986,-1.78924 -1.05934,-0.54458 -2.90115,-1.33301 -4.0929,-1.75206 -1.19176,-0.41905 -2.38352,-0.86503 -2.64835,-0.99108 -0.26484,-0.12604 -0.99491,-0.39862 -1.62239,-0.60573 -0.62747,-0.20711 -2.52345,-0.71803 -4.21328,-1.13539 -1.99452,-0.4926 -4.17046,-0.83457 -6.20228,-0.97473 -1.72142,-0.11875 -4.24107,-0.2207 -5.59922,-0.22654 -1.35815,-0.006 -3.57915,0.15804 -4.93556,0.36419 -1.35641,0.20614 -3.17041,0.54786 -4.03113,0.75936 -0.86071,0.2115 -2.57312,0.7176 -3.80535,1.12467 -1.23224,0.40707 -2.20717,0.77403 -2.16651,0.81546 0.0407,0.0414 0.66965,-0.0846 1.39777,-0.28012 0.72812,-0.1955 2.78646,-0.59035 4.57409,-0.87746 2.34958,-0.37735 4.38442,-0.52448 7.34315,-0.53096 2.86726,-0.006 4.81386,0.12025 6.50049,0.42253 1.32417,0.23732 3.42795,0.70898 4.67507,1.04814 1.24712,0.33916 3.08892,0.94571 4.0929,1.34789 1.00398,0.40217 3.01717,1.34606 4.47377,2.09753 1.45659,0.75146 3.88949,2.2082 5.40645,3.23719 1.51696,1.02899 3.17764,2.27608 3.6904,2.77131 0.78847,0.76151 0.89289,0.97548 0.67684,1.38693 -0.14051,0.26757 -0.82612,0.90949 -1.52358,1.42648 -0.69746,0.51699 -2.05358,1.58478 -3.01361,2.37288 -0.96002,0.78809 -1.7455,1.55255 -1.7455,1.69879 0,0.18707 1.2267,0.21676 4.13767,0.10012 2.27572,-0.0912 4.17833,-0.20721 4.22802,-0.25786 z m -64.462508,-9.57809 c 0,-0.19547 0.283196,-1.27205 0.629325,-2.39241 0.346128,-1.12035 1.225581,-3.41724 1.954339,-5.10419 0.728758,-1.68695 1.973111,-4.226585 2.765229,-5.643625 0.792118,-1.41704 2.339207,-3.791042 3.437975,-5.27556 1.098769,-1.484518 3.17357,-3.862181 4.61068,-5.283696 1.4371,-1.421514 3.26297,-3.088868 4.05747,-3.70523 0.7945,-0.616363 2.36546,-1.708268 3.491,-2.426456 1.12555,-0.718187 3.23821,-1.884692 4.6948,-2.592231 1.45659,-0.707539 3.71624,-1.688543 5.02144,-2.180009 1.3052,-0.491465 3.79705,-1.263938 5.53745,-1.716605 1.7404,-0.452668 4.51864,-1.048539 6.17385,-1.324159 1.65522,-0.275621 4.30959,-0.611529 5.8986,-0.746464 1.589,-0.134935 3.86418,-0.267426 5.05593,-0.294425 1.19176,-0.027 2.46477,-0.03223 2.82892,-0.01162 0.38806,0.02196 0.66209,0.179038 0.66209,0.379518 0,0.188128 -2.73563,3.039265 -6.07917,6.33586 -3.34353,3.296596 -6.8669,6.750108 -7.8297,7.674472 -0.96279,0.924363 -1.96577,1.83431 -2.22884,2.022103 -0.41675,0.297501 -0.49779,0.289693 -0.62971,-0.06067 -0.0833,-0.221161 0.0186,-2.293373 0.22631,-4.604916 0.20775,-2.311543 0.31777,-4.301661 0.24451,-4.422485 -0.0733,-0.120823 -0.74309,-0.147658 -1.48848,-0.05963 -0.74539,0.08802 -2.43867,0.386751 -3.76284,0.663836 -1.32418,0.277084 -3.32849,0.774743 -4.45404,1.105908 -1.12555,0.331166 -3.02153,0.993129 -4.21328,1.471029 -1.19176,0.4779 -3.08774,1.370103 -4.21328,1.982673 -1.12555,0.61257 -2.83322,1.654728 -3.79483,2.315906 -0.96161,0.661179 -2.69507,2.013552 -3.85214,3.005274 -1.15707,0.991721 -2.8168,2.616142 -3.688278,3.609823 -0.871481,0.993682 -2.200492,2.62105 -2.953357,3.616376 -0.752865,0.995325 -1.982459,2.817233 -2.732431,4.048683 -0.749972,1.23145 -2.212681,3.9781 -3.250464,6.10366 -1.037783,2.12556 -1.939123,3.86465 -2.002978,3.86465 -0.06386,0 -0.1161,-0.15992 -0.1161,-0.35539 z m 8.206036,-14.823359 c 0.272387,-0.35636 1.366518,-1.618963 2.431402,-2.805784 1.06488,-1.186821 2.82872,-2.917661 3.91964,-3.846311 1.09092,-0.928651 2.92407,-2.313308 4.07366,-3.077017 1.14959,-0.763708 3.41383,-2.031368 5.03164,-2.817022 1.61781,-0.785653 4.1874,-1.829322 5.7102,-2.319264 1.5228,-0.489941 4.06883,-1.159345 5.65784,-1.487563 1.58901,-0.328218 3.50427,-0.669756 4.25613,-0.758973 1.17573,-0.139513 1.45823,-0.0891 2.01873,0.360244 0.35844,0.287351 0.54302,0.522456 0.41018,0.522456 -0.13284,0 -0.31208,0.46928 -0.3983,1.042844 -0.0862,0.573564 -0.31014,2.310628 -0.49759,3.860142 -0.18744,1.549514 -0.30295,2.85588 -0.25668,2.903035 0.0463,0.04715 0.283,-0.02572 0.52607,-0.161943 0.24307,-0.136224 1.36802,-1.221753 2.49989,-2.412286 1.13186,-1.190533 2.14335,-2.307466 2.24774,-2.482073 0.1044,-0.174607 0.0817,-0.450653 -0.0504,-0.613437 -0.1321,-0.162783 -0.27686,-0.627226 -0.32168,-1.032095 -0.0746,-0.674208 -0.1491,-0.729217 -0.88527,-0.654009 -0.44208,0.04516 -1.11784,-0.05047 -1.50168,-0.212508 -0.38385,-0.162043 -0.6436,-0.384172 -0.57723,-0.49362 0.0664,-0.109448 0.52544,-0.328201 1.02016,-0.486117 0.49472,-0.157916 1.60371,-0.565827 2.46443,-0.906467 0.86071,-0.340641 2.0982,-0.893495 2.74997,-1.228565 0.65178,-0.33507 1.78078,-1.011798 2.50889,-1.503839 1.32385,-0.894622 1.32385,-0.894622 0.0188,-1.068941 -0.71781,-0.09588 -2.00932,-0.274834 -2.87003,-0.397686 -0.86072,-0.122851 -1.61911,-0.195799 -1.68532,-0.162107 -0.0662,0.03369 -1.25796,0.136452 -2.64834,0.228352 -1.39039,0.0919 -3.06968,0.31942 -3.73177,0.505599 -0.66208,0.186178 -2.23304,0.577033 -3.491,0.868566 -1.25797,0.291533 -2.93726,0.753156 -3.73176,1.025828 -0.79451,0.272672 -1.82375,0.659904 -2.28721,0.860516 -0.46346,0.200612 -1.49271,0.672717 -2.28721,1.049122 -0.79451,0.376405 -1.93209,0.916865 -2.52797,1.201021 -0.59588,0.284157 -1.62512,0.825168 -2.28721,1.202247 -0.66209,0.377079 -1.9169,1.177478 -2.78848,1.778665 -0.87157,0.601187 -2.05061,1.369114 -2.62009,1.706505 -0.56947,0.33739 -1.5394,1.110321 -2.1554,1.717624 -0.616,0.607303 -2.05098,1.987537 -3.18883,3.067186 -1.13786,1.07965 -2.550626,2.570302 -3.139488,3.312561 -0.588861,0.742259 -1.729377,2.343331 -2.534478,3.557936 -0.805101,1.214606 -1.786353,2.815677 -2.18056,3.557936 -0.394206,0.742259 -0.796977,1.625611 -0.895046,1.963001 -0.09807,0.33739 0.648955,-0.58565 1.660052,-2.051198 1.011097,-1.465548 2.06122,-2.956201 2.333608,-3.312561 z"
         id="path37" /><path
         style="fill:#a76e3b"
         d="m 101.73927,195.1267 c 0,-0.14337 1.29706,-1.71684 2.88236,-3.49659 1.5853,-1.77975 3.81153,-4.45052 4.94719,-5.93504 1.13566,-1.48452 2.74438,-3.7481 3.57493,-5.03018 0.83055,-1.28209 1.91466,-3.01797 2.40913,-3.85751 0.49446,-0.83955 1.53009,-2.8823 2.3014,-4.53944 0.7713,-1.65714 1.79204,-4.14372 2.26832,-5.52572 0.47627,-1.382 1.09381,-3.42228 1.3723,-4.53395 0.2785,-1.11167 0.71394,-3.45913 0.96765,-5.21658 0.26224,-1.81659 0.46176,-4.52198 0.46239,-6.26987 6.1e-4,-1.69098 -0.16439,-4.45145 -0.36666,-6.13437 -0.20228,-1.68292 -0.63852,-4.21926 -0.96944,-5.6363 -0.33092,-1.41704 -0.92991,-3.61058 -1.3311,-4.87453 -0.40118,-1.26396 -1.0367,-3.08587 -1.41226,-4.04869 -0.37557,-0.96282 -1.35226,-3.22417 -2.17042,-5.02523 -0.81817,-1.80105 -1.43887,-3.32428 -1.37933,-3.38496 0.0595,-0.0607 0.73671,0.86081 1.50482,2.04776 0.76811,1.18695 2.07515,3.48312 2.90453,5.10259 0.82937,1.61948 2.00406,4.23957 2.61042,5.82243 0.60635,1.58286 1.47952,4.28008 1.94037,5.99382 0.46084,1.71375 1.0538,4.61459 1.31767,6.44632 0.32582,2.26177 0.48019,4.61945 0.48107,7.34762 7.7e-4,2.37003 -0.15276,5.08652 -0.37445,6.62512 -0.20667,1.43436 -0.53627,3.40942 -0.73245,4.38902 -0.19618,0.9796 -0.71448,2.96713 -1.15178,4.41675 -0.4373,1.44961 -1.20519,3.68463 -1.70643,4.96672 -0.50124,1.28208 -1.58771,3.71129 -2.41438,5.39825 -0.82667,1.68695 -1.67555,3.394 -1.88639,3.79344 -0.32927,0.62379 -0.33582,0.77957 -0.0464,1.10418 0.18531,0.20787 2.07751,1.25853 4.20489,2.33481 2.79925,1.41619 3.86796,2.07592 3.86796,2.38773 0,0.24557 -0.23296,0.48552 -0.54171,0.55797 -0.29794,0.0699 -2.00432,0.44959 -3.79195,0.84373 -1.78764,0.39414 -5.09205,1.12164 -7.34315,1.61668 -2.25109,0.49504 -5.70691,1.27687 -7.67959,1.73739 -1.97268,0.46052 -3.84157,0.83731 -4.15309,0.83731 -0.31152,0 -0.5664,-0.1173 -0.5664,-0.26068 z m 9.87111,-2.29318 c 4.43599,-1.00156 9.2301,-2.06971 10.65359,-2.37366 1.42348,-0.30396 2.58815,-0.65177 2.58815,-0.77292 0,-0.12114 -0.89381,-0.64068 -1.98626,-1.15452 -1.09244,-0.51384 -2.70374,-1.22637 -3.58066,-1.5834 -0.87692,-0.35703 -1.77074,-0.58017 -1.98626,-0.49589 -0.32349,0.12652 -0.39186,-0.0258 -0.39186,-0.8732 0,-0.78056 0.34135,-1.68326 1.42491,-3.76822 0.7837,-1.50797 1.93429,-3.95637 2.55685,-5.44088 0.62257,-1.48452 1.4831,-3.7519 1.9123,-5.03861 0.42919,-1.28672 1.06276,-3.5503 1.40792,-5.03019 0.34516,-1.47988 0.79356,-3.99377 0.99645,-5.58642 0.20289,-1.59265 0.36889,-4.43028 0.36889,-6.30584 0,-1.87556 -0.16624,-4.70256 -0.36942,-6.28222 -0.20318,-1.57966 -0.63142,-3.98693 -0.95164,-5.34947 -0.32022,-1.36255 -0.9172,-3.52634 -1.32663,-4.80843 -0.40942,-1.28208 -1.13617,-3.18748 -1.61498,-4.23421 -0.47882,-1.04674 -0.9052,-1.86787 -0.94752,-1.82474 -0.0423,0.0431 0.19101,0.95476 0.51851,2.02584 0.3275,1.07108 0.86422,3.10682 1.1927,4.52386 0.32848,1.41704 0.76259,3.75001 0.96469,5.18437 0.22072,1.56645 0.36746,4.36622 0.36746,7.01083 0,3.56047 -0.11365,5.08028 -0.59396,7.94319 -0.32668,1.94716 -1.03596,4.97573 -1.57619,6.73016 -0.54022,1.75444 -1.37604,4.12844 -1.85738,5.27556 -0.48134,1.14713 -1.35706,3.02425 -1.94603,4.17138 -0.58898,1.14713 -1.67588,3.07945 -2.41534,4.29406 -0.73946,1.2146 -2.20445,3.36777 -3.25553,4.78481 -1.05108,1.41704 -2.40926,3.18374 -3.01817,3.926 -0.60891,0.74226 -1.97384,2.28955 -3.03318,3.43844 -1.05934,1.14888 -2.25109,2.46205 -2.64835,2.91815 -0.72227,0.82928 -0.72227,0.82928 -0.12037,0.67324 0.33104,-0.0858 4.23133,-0.9755 8.66731,-1.97707 z m -42.387721,-3.4127 c -0.720506,-0.44753 -4.831109,-3.10943 -9.134674,-5.91533 -4.303565,-2.80591 -8.339285,-5.43257 -8.968268,-5.83702 -0.628982,-0.40445 -1.143604,-0.87661 -1.143604,-1.04923 0,-0.17263 0.243768,-0.38045 0.541707,-0.46182 0.297939,-0.0814 1.570952,-0.1506 2.828917,-0.15384 1.257965,-0.003 3.587307,-0.11813 5.176316,-0.25533 1.589008,-0.1372 4.351716,-0.47265 6.139351,-0.74545 1.787635,-0.2728 4.550343,-0.81303 6.139351,-1.20051 1.589009,-0.38749 4.080863,-1.11443 5.537454,-1.61543 1.456592,-0.501 3.747296,-1.39992 5.090456,-1.9976 1.343159,-0.59768 3.432597,-1.66457 4.643197,-2.37087 1.210599,-0.7063 3.193209,-1.99704 4.405801,-2.86831 1.212592,-0.87127 3.434382,-2.78816 4.937312,-4.25977 1.502929,-1.4716 3.397288,-3.51434 4.209686,-4.53943 0.812399,-1.02509 2.220689,-3.02319 3.129539,-4.44023 0.90885,-1.41704 2.28821,-3.84625 3.06525,-5.39825 0.77704,-1.552 1.86686,-3.98121 2.42182,-5.39825 0.55497,-1.41704 1.23475,-3.26254 1.51064,-4.10112 0.27588,-0.83857 0.64877,-1.58223 0.82863,-1.65258 0.25543,-0.0999 0.29276,0.0727 0.17049,0.78856 -0.0861,0.50405 -0.42057,1.8942 -0.74327,3.08923 -0.32271,1.19502 -0.97527,3.34372 -1.45013,4.77489 -0.47486,1.43116 -1.43024,3.88923 -2.12307,5.46237 -0.69282,1.57315 -1.87412,3.92431 -2.62511,5.22482 -0.75099,1.30051 -2.193,3.48422 -3.20447,4.8527 -1.011459,1.36847 -2.819163,3.53303 -4.017115,4.81014 -1.197953,1.2771 -3.264805,3.21338 -4.593006,4.30284 -1.328201,1.08945 -3.364698,2.61688 -4.525548,3.39427 -1.160849,0.7774 -3.598533,2.17967 -5.417074,3.11617 -1.818541,0.93649 -4.606537,2.20246 -6.195545,2.81327 -1.589009,0.6108 -3.86418,1.40889 -5.055937,1.77352 -1.191756,0.36464 -2.2593,0.75103 -2.372319,0.85864 -0.113019,0.10761 -0.04426,0.73081 0.152801,1.38487 0.197059,0.65406 0.804152,2.62161 1.349094,4.37233 0.544942,1.75072 0.990804,3.3794 0.990804,3.61928 0,0.23989 -0.08763,0.43616 -0.194733,0.43616 -0.107103,0 -0.784237,-0.36616 -1.504743,-0.81369 z m 0.977199,-0.38191 c 0,-0.11776 -0.501391,-1.63601 -1.114202,-3.37391 -0.612812,-1.73789 -1.331739,-3.47395 -1.597617,-3.8579 -0.483413,-0.69809 -0.483413,-0.69809 0.211357,-1.37821 0.458693,-0.44901 1.431042,-0.90443 2.8616,-1.34029 1.191757,-0.3631 3.358587,-1.10732 4.815178,-1.65383 1.456591,-0.54651 4.110958,-1.73428 5.898592,-2.63949 1.787635,-0.90521 4.225319,-2.26521 5.417075,-3.02222 1.191757,-0.75701 3.141903,-2.17248 4.33366,-3.14551 1.191756,-0.97302 2.964487,-2.55494 3.939401,-3.51536 0.974915,-0.96043 2.592371,-2.74 3.594347,-3.95461 1.001976,-1.2146 2.552061,-3.33727 3.444641,-4.71704 0.89257,-1.37976 2.22185,-3.75377 2.95395,-5.27556 0.7321,-1.52179 1.66456,-3.69332 2.07213,-4.82562 0.40757,-1.13231 0.69781,-2.1028 0.64497,-2.15665 -0.0528,-0.0539 -0.6095,0.92778 -1.23702,2.18142 -0.62753,1.25363 -1.74074,3.2731 -2.47381,4.48771 -0.73307,1.2146 -1.93919,3.03172 -2.68027,4.03804 -0.74107,1.00632 -1.943926,2.49137 -2.673007,3.30013 -0.729081,0.80875 -1.758967,1.92544 -2.288637,2.48152 -0.529669,0.55608 -1.748359,1.6909 -2.708199,2.52181 -0.959841,0.8309 -2.860023,2.27307 -4.222628,3.20481 -1.362606,0.93173 -3.394161,2.19856 -4.514567,2.81518 -1.120407,0.61661 -3.066347,1.55618 -4.324312,2.08792 -1.257965,0.53175 -3.291531,1.30887 -4.519034,1.72694 -1.227503,0.41807 -3.293657,1.03445 -4.591452,1.36973 -1.297794,0.33528 -3.435377,0.78208 -4.750183,0.99289 -1.314805,0.21081 -4.015678,0.54374 -6.001938,0.73985 -1.986261,0.19612 -4.857311,0.35968 -6.380111,0.36347 -1.5228,0.004 -2.913288,0.10029 -3.089974,0.21444 -0.2271,0.14672 0.443201,0.69945 2.28721,1.88605 1.434651,0.92318 4.396091,2.83765 6.580977,4.25438 2.184887,1.41672 5.2648,3.43719 6.844252,4.48993 1.579452,1.05274 2.960806,1.91408 3.069676,1.91408 0.10887,0 0.197945,-0.0964 0.197945,-0.2141 z m 81.057852,-17.63693 c -0.0585,-0.10121 -0.17985,-1.84031 -0.26974,-3.86465 -0.0899,-2.02434 -0.32265,-5.17128 -0.51725,-6.99319 -0.1946,-1.8219 -0.62302,-4.82801 -0.95204,-6.68023 -0.32903,-1.85223 -0.97009,-4.68437 -1.42457,-6.29365 -0.45449,-1.60928 -1.38739,-4.37286 -2.07311,-6.14129 -0.68572,-1.76842 -1.9102,-4.42826 -2.72107,-5.91075 -0.81087,-1.48249 -2.17595,-3.71816 -3.03351,-4.96816 -0.94189,-1.37292 -2.99126,-3.73224 -5.17631,-5.95918 -2.17086,-2.21248 -4.50721,-4.32185 -5.84326,-5.27556 -1.22438,-0.874 -3.49947,-2.33343 -5.05577,-3.24317 -1.55629,-0.90975 -4.07562,-2.19523 -5.59852,-2.85664 -1.52289,-0.66141 -4.06899,-1.67416 -5.658,-2.25056 -1.58901,-0.57639 -2.99203,-1.14042 -3.11783,-1.25339 -0.13244,-0.11893 -0.0124,-0.2054 0.28521,-0.2054 0.28266,0 1.25232,0.15875 2.15479,0.35277 0.90248,0.19402 2.90865,0.74487 4.45817,1.22412 1.54952,0.47925 3.90631,1.31354 5.23732,1.85398 1.331,0.54043 3.58431,1.57851 5.00735,2.30682 1.42304,0.72832 3.72494,2.0895 5.11532,3.02485 1.39038,0.93534 3.50304,2.53173 4.6948,3.54752 1.19175,1.0158 3.10475,2.84303 4.2511,4.06051 1.14635,1.21748 2.91171,3.34672 3.92301,4.73164 1.01131,1.38493 2.44243,3.56347 3.18027,4.84121 0.73785,1.27775 1.91309,3.55448 2.61166,5.0594 0.69856,1.50493 1.54579,3.45396 1.88272,4.33117 0.33693,0.87722 1.06604,3.01329 1.62024,4.74683 1.00763,3.15189 1.00763,3.15189 1.76081,3.04178 0.41424,-0.0606 2.47634,-0.67431 4.58243,-1.3639 2.10609,-0.68959 3.93025,-1.19019 4.05369,-1.11244 0.12343,0.0777 0.17626,0.32907 0.11739,0.5585 -0.0589,0.22942 -3.01087,5.02018 -6.56002,10.64611 -3.54914,5.62594 -6.53758,10.22898 -6.64098,10.22898 -0.1034,0 -0.23583,-0.0828 -0.2943,-0.18403 z m 2.49662,-3.98734 c 0.95327,-1.552 3.68435,-5.88978 6.06908,-9.63952 2.38472,-3.74975 4.28068,-6.87396 4.21324,-6.9427 -0.0675,-0.0687 -1.54433,0.41144 -3.28197,1.06704 -1.73764,0.65561 -3.45372,1.43343 -3.81351,1.72848 -0.35978,0.29505 -0.72316,0.53646 -0.8075,0.53646 -0.0843,0 -0.42544,-0.25701 -0.758,-0.57112 -0.43178,-0.40784 -0.92766,-1.60685 -1.73444,-4.19374 -0.62138,-1.99244 -1.62021,-4.79956 -2.21962,-6.23804 -0.59941,-1.43847 -1.69685,-3.77481 -2.43875,-5.19185 -0.7419,-1.41704 -2.04636,-3.62541 -2.8988,-4.90749 -0.85243,-1.28209 -2.22851,-3.15921 -3.05795,-4.17138 -0.82945,-1.01217 -2.63063,-2.94781 -4.00263,-4.30142 -1.372,-1.35361 -3.1446,-2.96711 -3.9391,-3.58556 -0.79451,-0.61845 -2.36546,-1.73386 -3.49101,-2.47869 -1.12555,-0.74482 -3.13744,-1.91042 -4.47088,-2.59022 -1.33344,-0.67979 -3.12107,-1.53059 -3.97252,-1.89066 -0.85145,-0.36007 -2.11688,-0.85997 -2.81208,-1.1109 -0.69519,-0.25093 -1.26398,-0.41123 -1.26398,-0.35623 0,0.055 1.31208,0.78177 2.91572,1.61503 1.60365,0.83326 4.01425,2.25473 5.35689,3.1588 1.34264,0.90408 3.30789,2.34672 4.36723,3.20587 1.05934,0.85915 2.9558,2.61833 4.21435,3.90929 1.25856,1.29095 3.05743,3.39433 3.99749,4.67416 0.94005,1.27983 2.36266,3.43408 3.16134,4.78721 0.79869,1.35313 1.99333,3.67192 2.65476,5.15287 0.66143,1.48095 1.48717,3.50187 1.83499,4.49094 0.34781,0.98907 0.90657,2.79218 1.24168,4.00691 0.33512,1.21473 0.81676,3.27638 1.07032,4.58144 0.25356,1.30506 0.67649,4.02912 0.93985,6.05346 0.26336,2.02435 0.55286,5.64887 0.64335,8.05451 0.0905,2.40563 0.25109,4.28275 0.35689,4.17137 0.10579,-0.11138 0.9723,-1.47232 1.92556,-3.02432 z M 61.1714,150.45997 c -1.059339,-0.11215 -3.063656,-0.43958 -4.454039,-0.72764 -1.390382,-0.28805 -3.773895,-0.908 -5.296695,-1.37765 -1.5228,-0.46966 -3.951974,-1.34775 -5.398164,-1.95133 -1.44619,-0.60357 -4.019189,-1.81763 -5.717774,-2.6979 -1.698585,-0.88028 -3.26695,-1.56478 -3.485254,-1.52112 -0.235736,0.0472 -1.208816,1.67367 -2.396254,4.00538 -1.099635,2.1593 -2.161865,4.03251 -2.360511,4.1627 -0.198647,0.13018 -0.431692,0.16482 -0.517878,0.077 -0.08619,-0.0878 -0.46122,-1.57459 -0.833407,-3.30389 -0.372188,-1.72929 -1.504673,-6.98825 -2.516633,-11.68658 -1.01196,-4.69832 -1.899291,-8.70007 -1.971847,-8.89277 -0.07284,-0.19344 0.04515,-0.41962 0.263427,-0.50498 0.272897,-0.10673 0.858551,0.29414 1.890861,1.29426 0.822533,0.79689 2.578929,2.39186 3.903103,3.54439 1.324174,1.15252 3.274321,2.75892 4.33366,3.56977 1.059339,0.81085 3.117827,2.28947 4.574419,3.28581 1.456591,0.99635 4.490153,2.76332 6.741248,3.9266 2.65765,1.37337 5.274872,2.50787 7.463525,3.23526 1.853844,0.61611 4.454039,1.34758 5.778213,1.62548 1.324174,0.2779 3.707687,0.63538 5.296696,0.79439 1.698709,0.17 4.277903,0.22787 6.25973,0.14046 1.853844,-0.0818 4.345698,-0.31925 5.537454,-0.52774 1.191757,-0.20848 3.508127,-0.7173 5.14749,-1.13071 1.639363,-0.4134 4.3479,-1.28117 6.018972,-1.92838 1.671072,-0.6472 4.4879,-1.85732 6.259619,-2.68916 1.771718,-0.83183 3.267652,-1.46519 3.324296,-1.40746 0.05664,0.0577 -0.255358,0.36537 -0.693338,0.68365 -0.437981,0.31827 -1.66306,1.11577 -2.722399,1.77222 -1.05934,0.65644 -2.846974,1.66443 -3.972522,2.23996 -1.125548,0.57553 -3.08057,1.49433 -4.344494,2.04178 -1.263924,0.54744 -3.539095,1.37761 -5.055936,1.84482 -1.516841,0.46722 -3.895479,1.08142 -5.285861,1.36491 -1.390383,0.28349 -3.557213,0.62427 -4.815178,0.75729 -1.257965,0.13303 -3.80399,0.22909 -5.657833,0.21348 -1.853844,-0.0156 -4.237357,-0.12015 -5.296696,-0.23229 z m 13.482497,-0.82133 c 1.191757,-0.2071 3.302793,-0.66612 4.691191,-1.02002 1.388398,-0.35391 3.379404,-0.96477 4.424456,-1.35748 1.045053,-0.39272 2.810863,-1.11279 3.924023,-1.60016 1.11316,-0.48738 1.983135,-0.92772 1.933278,-0.97853 -0.04986,-0.0508 -0.89314,0.17418 -1.873964,0.49999 -0.980824,0.32581 -3.173207,0.94045 -4.871961,1.36588 -1.698755,0.42542 -4.349004,0.93284 -5.889442,1.1276 -1.540439,0.19476 -4.430037,0.35195 -6.421331,0.34931 -1.991294,-0.003 -4.758119,-0.16096 -6.148502,-0.35183 -1.390382,-0.19088 -3.503042,-0.57697 -4.694798,-0.85798 -1.191756,-0.28101 -3.358586,-0.90949 -4.815178,-1.39661 -1.456591,-0.48712 -3.819096,-1.42223 -5.250012,-2.07802 -1.430915,-0.65578 -3.760258,-1.8708 -5.176316,-2.70003 -1.416058,-0.82923 -3.712237,-2.31034 -5.102619,-3.29135 -1.390383,-0.98101 -3.882237,-2.95271 -5.537454,-4.38156 -1.655217,-1.42885 -3.850189,-3.38972 -4.877714,-4.35749 -1.027525,-0.96777 -1.927414,-1.69926 -1.999754,-1.62554 -0.07234,0.0737 0.03222,0.78117 0.232354,1.5721 0.200133,0.79093 1.061373,4.64019 1.913865,8.55392 0.852492,3.91373 1.792356,8.30287 2.088586,9.75365 0.29623,1.45078 0.631726,2.63778 0.745545,2.63778 0.11382,0 0.620684,-0.91095 1.126364,-2.02434 0.505681,-1.11339 1.202181,-2.74206 1.547778,-3.61928 0.345598,-0.87721 0.687943,-1.78817 0.760768,-2.02434 0.08754,-0.28391 0.377848,-0.42941 0.85676,-0.42941 0.421502,0 2.060397,0.69854 3.919888,1.67076 1.757544,0.91892 4.170609,2.08618 5.362365,2.59393 1.191757,0.50774 3.087733,1.24168 4.213281,1.63098 1.125547,0.3893 3.075694,0.978 4.333659,1.30822 1.257966,0.33022 3.424795,0.77505 4.815178,0.98852 1.390382,0.21347 2.961334,0.43418 3.491004,0.49046 0.529669,0.0563 3.021524,0.063 5.537454,0.0149 2.586538,-0.0495 5.516046,-0.25109 6.741248,-0.46401 z m 7.704284,-15.08862 c -1.98626,-0.52188 -4.85731,-1.41603 -6.38011,-1.987 -1.5228,-0.57097 -3.960483,-1.62479 -5.417075,-2.34182 -1.456591,-0.71703 -3.56925,-1.8676 -4.694798,-2.55683 -1.125547,-0.68923 -3.075694,-2.04788 -4.333659,-3.01921 -1.257966,-0.97133 -3.543703,-3.03588 -5.079418,-4.58787 -1.535715,-1.552 -3.385183,-3.59475 -4.109931,-4.53944 -0.724748,-0.94469 -1.867398,-2.55108 -2.539224,-3.56976 -0.671826,-1.01867 -1.838855,-2.98857 -2.593399,-4.37755 -0.754544,-1.38898 -1.890497,-3.75767 -2.524339,-5.26374 -0.633842,-1.50608 -1.676929,-4.364514 -2.317969,-6.352086 -0.641041,-1.987572 -1.278383,-3.657904 -1.416316,-3.711849 -0.137934,-0.05394 -2.091302,0.490165 -4.340818,1.209132 -2.249517,0.718968 -4.279629,1.312718 -4.511359,1.319444 -0.250078,0.0073 -0.421328,-0.167784 -0.421328,-0.430662 0,-0.243591 1.743606,-3.197292 3.874679,-6.563779 2.131074,-3.366487 4.61891,-7.280283 5.528525,-8.697323 0.909614,-1.41704 2.055426,-3.266553 2.546248,-4.110029 0.490822,-0.843476 1.031639,-1.533593 1.201815,-1.533593 0.170176,0 0.362733,0.35886 0.427904,0.797468 0.06517,0.438608 0.176795,2.34333 0.248053,4.232717 0.07126,1.889387 0.348925,5.201948 0.617037,7.361247 0.268112,2.159299 0.714749,5.085395 0.992527,6.502435 0.277779,1.41704 0.915676,3.969921 1.417549,5.673068 0.501874,1.703147 1.317079,4.13236 1.811567,5.39825 0.494487,1.26589 1.223814,2.96413 1.620726,3.77386 0.396911,0.80974 1.217514,2.3507 1.823561,3.42435 0.606047,1.07366 1.898309,3.04274 2.871693,4.37573 0.973383,1.33299 2.657432,3.37014 3.74233,4.52699 1.084899,1.15686 2.947616,2.9345 4.139373,3.95031 1.191756,1.01582 3.196074,2.53392 4.454039,3.37358 1.257965,0.83965 3.424795,2.13703 4.815177,2.88306 1.390383,0.74604 3.828066,1.8983 5.417075,2.56058 1.589009,0.66228 3.767242,1.50173 4.840519,1.86544 1.073277,0.36371 2.156692,0.81966 2.407589,1.01322 0.445012,0.34332 0.444392,0.35192 -0.02534,0.35124 -0.264835,-3.9e-4 -2.10664,-0.4277 -4.092901,-0.94958 z m -7.463525,-3.61128 c -1.456591,-0.7619 -3.619101,-1.99709 -4.805578,-2.74487 -1.186476,-0.74778 -3.193745,-2.15536 -4.460597,-3.12796 -1.266852,-0.97261 -3.654685,-3.19466 -5.306295,-4.9379 -1.65161,-1.74325 -3.646797,-4.08774 -4.433749,-5.20998 -0.786952,-1.12225 -2.115338,-3.21309 -2.951971,-4.64631 -0.836632,-1.43323 -2.025009,-3.82047 -2.640838,-5.30499 -0.615828,-1.48452 -1.528401,-3.93365 -2.027939,-5.442522 -0.499538,-1.508868 -1.183295,-3.993289 -1.519461,-5.520935 -0.336165,-1.527646 -0.836971,-4.544237 -1.112902,-6.703537 -0.275931,-2.159299 -0.56384,-5.803116 -0.639797,-8.097371 -0.07596,-2.294256 -0.211406,-4.312782 -0.300998,-4.485614 -0.100683,-0.194228 -0.976823,1.024024 -2.294087,3.189874 -1.172156,1.927263 -2.620586,4.277045 -3.218735,5.221738 -0.598148,0.944694 -2.327511,3.648142 -3.843028,6.007664 -1.515517,2.359522 -2.814358,4.4464 -2.886313,4.637506 -0.10295,0.273427 0.01869,0.309335 0.570847,0.168516 0.38592,-0.09842 1.730918,-0.569565 2.988883,-1.046982 1.257965,-0.477418 2.713839,-1.075929 3.235276,-1.330026 0.521437,-0.254096 1.071345,-0.461994 1.222017,-0.461994 0.150672,0 0.495368,0.248443 0.765991,0.552094 0.270623,0.303651 0.89549,1.877118 1.388593,3.496592 0.493104,1.619475 1.381337,4.155018 1.973852,5.634547 0.592515,1.47952 1.683605,3.89808 2.424644,5.37458 0.74104,1.4765 2.068538,3.79938 2.949996,5.16195 0.881459,1.36258 2.41837,3.47118 3.415358,4.68579 0.996989,1.21461 2.831127,3.2056 4.075864,4.42443 1.244737,1.21883 3.150126,2.90236 4.234198,3.74118 1.084073,0.83883 2.980049,2.1523 4.213281,2.91883 1.233232,0.76652 3.157115,1.83122 4.275295,2.36599 1.11818,0.53477 3.122498,1.39518 4.454039,1.91204 1.331541,0.51685 2.529326,0.9427 2.661743,0.94633 0.132417,0.004 -0.950998,-0.61677 -2.407589,-1.37866 z m 5.30105,-8.67402 c -0.373126,-0.60679 -1.057566,-1.71055 -1.520979,-2.45281 -0.463412,-0.74226 -1.51789,-2.7298 -2.343283,-4.41675 -0.825394,-1.68695 -1.901643,-4.11109 -2.391665,-5.38698 -0.490022,-1.27589 -1.264716,-3.7051 -1.721541,-5.39825 -0.456826,-1.69315 -1.038583,-4.40347 -1.292795,-6.022948 -0.254211,-1.619474 -0.532962,-4.214314 -0.619446,-5.76631 -0.08818,-1.582375 -0.03603,-4.276803 0.11872,-6.134373 0.151779,-1.821908 0.538603,-4.637585 0.859608,-6.25706 0.321005,-1.619474 0.896155,-3.993476 1.278111,-5.27556 0.381956,-1.282084 1.162939,-3.545667 1.735517,-5.030185 0.572579,-1.484519 1.834746,-4.300196 2.804817,-6.25706 0.970071,-1.956865 1.76391,-3.684711 1.764087,-3.839658 1.76e-4,-0.154946 -1.841485,-1.245992 -4.09258,-2.424545 -2.251096,-1.178553 -4.092901,-2.230893 -4.092901,-2.338532 0,-0.10764 0.157196,-0.355918 0.349325,-0.551731 0.192128,-0.195812 0.760921,-0.431288 1.263984,-0.523279 0.503062,-0.09199 5.139977,-1.099774 10.304255,-2.239517 5.164278,-1.139743 9.781361,-2.181969 10.260185,-2.316058 0.478824,-0.13409 1.101788,-0.243799 1.384364,-0.243799 0.282576,0 0.513774,0.116135 0.513774,0.258079 0,0.141944 -1.316528,1.742405 -2.925618,3.556581 -1.609091,1.814176 -3.790609,4.430903 -4.847819,5.814949 -1.05721,1.384047 -2.84495,3.938624 -3.972756,5.676839 -1.127806,1.738215 -2.827195,4.71952 -3.776421,6.625122 -0.949225,1.905602 -2.178225,4.768177 -2.731112,6.361277 -0.552887,1.5931 -1.268442,3.967102 -1.590123,5.27556 -0.321681,1.308458 -0.755437,3.569359 -0.963903,5.024224 -0.220426,1.538338 -0.379029,4.281379 -0.379029,6.555342 0,2.198189 0.164587,5.122422 0.37592,6.679042 0.206756,1.52289 0.692258,4.05165 1.078893,5.61945 0.386635,1.5678 1.04222,3.83138 1.456856,5.03018 0.414635,1.1988 1.113388,3.06299 1.552782,4.14264 0.439395,1.07965 1.297711,3.05565 1.907368,4.39112 0.609658,1.33547 1.068721,2.54965 1.020142,2.69819 -0.04858,0.14853 -0.393611,-0.2264 -0.766737,-0.83319 z m -4.47451,-10.67845 c -0.390069,-1.21154 -0.97548,-3.30698 -1.300914,-4.65654 -0.325433,-1.34956 -0.775128,-3.61315 -0.999322,-5.03019 -0.281528,-1.77942 -0.408524,-4.056602 -0.410531,-7.361244 -0.0024,-3.879209 0.100327,-5.388545 0.542533,-7.974684 0.299991,-1.754431 0.915956,-4.502365 1.368811,-6.10652 0.452854,-1.604155 1.338278,-4.143785 1.967608,-5.643623 0.62933,-1.499837 1.929549,-4.217629 2.889374,-6.039537 0.959826,-1.821909 2.716221,-4.692795 3.9031,-6.379748 1.186878,-1.686952 3.186402,-4.281792 4.443386,-5.76631 1.256983,-1.484518 3.058993,-3.554869 4.004466,-4.600779 1.542407,-1.706256 1.658352,-1.901656 1.128397,-1.901656 -0.324855,0 -1.393452,0.207822 -2.37466,0.461827 -0.981208,0.254004 -3.300795,0.801855 -5.154638,1.217446 -1.853844,0.415591 -5.104089,1.136974 -7.222767,1.603073 -2.118678,0.466099 -4.473216,0.974654 -5.232307,1.130123 -0.759091,0.155469 -1.435033,0.37315 -1.502092,0.483735 -0.06706,0.110585 0.01231,0.313023 0.176371,0.449863 0.164064,0.13684 1.435883,0.772794 2.826266,1.413233 1.390382,0.640439 2.961334,1.297841 3.491003,1.460893 0.863321,0.265764 0.970629,0.386631 1.036373,1.167318 0.05758,0.68369 -0.324281,1.679992 -1.776722,4.635636 -1.017533,2.070629 -2.316185,4.97978 -2.885892,6.46478 -0.569708,1.485001 -1.319118,3.69377 -1.665356,4.908375 -0.346238,1.214606 -0.831836,3.146933 -1.079108,4.294061 -0.247271,1.147128 -0.59039,3.134664 -0.762486,4.416748 -0.172097,1.282084 -0.304379,4.263389 -0.293962,6.625123 0.01196,2.711117 0.166373,5.243826 0.41888,6.870497 0.219966,1.41704 0.769277,4.01188 1.22069,5.76631 0.451413,1.75443 1.196737,4.18364 1.656276,5.39825 0.459538,1.2146 1.127743,2.85035 1.484899,3.63499 0.357156,0.78464 0.685862,1.38943 0.730457,1.34398 0.0446,-0.0455 -0.238064,-1.07389 -0.628133,-2.28543 z m 91.478224,5.14863 c -1.37594,-1.30344 -3.53599,-3.22126 -4.80012,-4.26181 -1.26413,-1.04055 -3.37679,-2.67469 -4.6948,-3.63141 -1.31801,-0.95673 -3.42562,-2.37777 -4.68359,-3.15786 -1.25796,-0.78009 -3.8176,-2.17252 -5.68808,-3.09428 -1.87047,-0.92177 -4.71776,-2.11666 -6.32731,-2.655325 -1.60954,-0.53866 -4.30447,-1.263876 -5.98873,-1.61159 -1.68425,-0.347715 -4.4978,-0.723325 -6.25234,-0.83469 -1.75453,-0.111365 -4.62558,-0.109336 -6.38011,0.0045 -1.75453,0.113844 -4.36965,0.441213 -5.81138,0.727487 -1.44173,0.286274 -3.87942,0.889736 -5.41707,1.341027 -1.53766,0.451291 -3.88327,1.262291 -5.21246,1.802231 -1.32919,0.53993 -3.55019,1.50148 -4.93555,2.13676 -1.385372,0.63528 -2.762622,1.25006 -3.060561,1.36619 -0.29794,0.11612 -0.541708,0.16247 -0.541708,0.10299 0,-0.0595 0.904906,-0.71549 2.010901,-1.45781 1.105998,-0.74232 3.245738,-2.00535 4.754988,-2.80673 1.50925,-0.801385 3.99001,-1.959678 5.51281,-2.573983 1.5228,-0.614306 4.06883,-1.497378 5.65784,-1.962382 1.58901,-0.465004 4.23173,-1.077499 5.87272,-1.3611 1.641,-0.283602 4.51205,-0.584593 6.38011,-0.66887 1.95408,-0.08816 4.6463,-0.03526 6.33943,0.12456 1.61862,0.152784 4.10157,0.505668 5.51767,0.784187 1.4161,0.278519 3.80958,0.887874 5.31884,1.354123 1.50926,0.466249 3.73916,1.245353 4.95534,1.731343 1.21618,0.48599 3.93402,1.758596 6.03965,2.828012 2.73645,1.3898 3.90242,1.86897 4.08789,1.67994 0.14272,-0.14546 1.12847,-2.00033 2.19056,-4.121947 1.54235,-3.080962 2.04013,-3.873272 2.47279,-3.935897 0.29794,-0.04313 0.54171,0.0149 0.54171,0.128942 0,0.114044 0.42335,2.136865 0.94079,4.495158 0.51743,2.358294 1.67236,7.687584 2.56651,11.842874 1.10422,5.13154 1.54701,7.63529 1.38034,7.80515 -0.16666,0.16986 -1.04788,-0.51013 -2.74708,-2.1198 z m 1.13274,-4.21421 c -0.60081,-2.67016 -1.63983,-7.44968 -2.30893,-10.62115 -0.66911,-3.171468 -1.27546,-5.95954 -1.34745,-6.195713 -0.072,-0.236174 -0.20918,-0.429406 -0.30486,-0.429406 -0.0957,0 -0.5395,0.855745 -0.98627,1.901655 -0.44676,1.045911 -1.16235,2.840214 -1.59019,3.987344 -0.72992,1.95704 -0.82444,2.09046 -1.53246,2.16311 -0.5584,0.0573 -1.83245,-0.46464 -4.90067,-2.00764 -2.28036,-1.14678 -5.15171,-2.48072 -6.38077,-2.964306 -1.22907,-0.483585 -3.34173,-1.203146 -4.6948,-1.599024 -1.35308,-0.395878 -3.54355,-0.941591 -4.86772,-1.212696 -1.32418,-0.271106 -3.65352,-0.621472 -5.17632,-0.778592 -1.63858,-0.169065 -4.24284,-0.225829 -6.38011,-0.139063 -1.98626,0.08063 -4.91148,0.374118 -6.50049,0.652186 -1.58901,0.278068 -4.30872,0.937791 -6.04379,1.466052 -1.73508,0.528261 -4.22694,1.423231 -5.53746,1.988824 -1.31052,0.565592 -2.4838,1.121215 -2.60728,1.234716 -0.12349,0.113503 0.14736,0.08992 0.60189,-0.05239 0.45453,-0.142318 1.53064,-0.473541 2.39135,-0.736051 0.86071,-0.26251 2.43167,-0.692086 3.49101,-0.954614 1.05933,-0.262528 3.00948,-0.668877 4.33366,-0.902999 1.81592,-0.321065 3.73884,-0.423623 7.82466,-0.417323 4.83902,0.0075 5.76391,0.07704 8.66732,0.652059 1.78763,0.354039 4.27949,0.96807 5.53745,1.364514 1.25797,0.396444 3.13129,1.064006 4.16294,1.483467 1.03165,0.41947 2.65677,1.14063 3.61138,1.60258 0.95461,0.46195 2.7649,1.43488 4.02287,2.16206 1.25796,0.72718 2.93444,1.75641 3.72551,2.28717 0.79107,0.53076 2.59424,1.84837 4.00706,2.92802 1.41282,1.07965 3.79915,3.08513 5.30295,4.45663 1.5038,1.3715 3.11338,2.89683 3.57684,3.38961 0.6107,0.64935 0.86363,0.79273 0.91886,0.5209 0.0419,-0.2063 -0.41537,-2.55977 -1.01618,-5.22993 z m -82.723734,-2.86752 c 0,-0.33995 0.268507,-1.6991 0.596682,-3.02033 0.328175,-1.32123 0.965956,-3.5186 1.417292,-4.88304 0.451336,-1.36444 0.97943,-2.855093 1.173543,-3.31256 0.194113,-0.457467 0.852643,-1.971975 1.463398,-3.365573 0.610756,-1.393599 1.772383,-3.66631 2.581394,-5.050469 0.809011,-1.384159 2.115275,-3.386704 2.902809,-4.4501 0.787535,-1.063396 2.41121,-3.012482 3.608167,-4.331302 1.196959,-1.31882 3.225979,-3.294231 4.508939,-4.389802 1.28296,-1.095571 3.45931,-2.753196 4.83633,-3.683611 1.37701,-0.930415 3.76053,-2.342559 5.29669,-3.138099 1.53617,-0.79554 3.71762,-1.834484 4.84767,-2.308765 1.13005,-0.474281 3.22888,-1.258584 4.66406,-1.742896 1.43519,-0.484312 3.02954,-0.99586 3.54301,-1.136774 0.7289,-0.200035 0.93286,-0.375175 0.93028,-0.798842 -0.002,-0.29845 -0.59523,-2.406752 -1.3187,-4.685115 -0.72348,-2.278364 -1.25147,-4.247916 -1.17333,-4.376782 0.0781,-0.128865 0.32401,-0.185814 0.54636,-0.126552 0.22236,0.05926 4.78756,2.954337 10.14489,6.4335 5.35734,3.479163 9.90313,6.480803 10.10175,6.670311 0.29876,0.285046 0.30501,0.379929 0.0362,0.54933 -0.17873,0.112623 -2.12888,0.282721 -4.33366,0.377996 -2.20478,0.09527 -5.95884,0.436546 -8.34235,0.758381 -2.38351,0.321835 -5.3629,0.815552 -6.62087,1.097149 -1.25796,0.281597 -3.38382,0.8332 -4.72412,1.225784 -1.34031,0.392584 -3.53459,1.159482 -4.87618,1.704218 -1.34159,0.544736 -3.60357,1.586821 -5.02661,2.315743 -1.42304,0.728923 -3.56242,1.982207 -4.75418,2.785076 -1.19175,0.80287 -2.7627,1.942922 -3.491,2.533449 -0.7283,0.590528 -2.23097,1.960424 -3.33928,3.044214 -1.108311,1.083791 -2.709729,2.818981 -3.558708,3.855978 -0.848979,1.036998 -2.342762,3.104518 -3.319518,4.59449 -0.976756,1.489972 -2.431601,4.019775 -3.23299,5.621786 -0.801389,1.602007 -1.989744,4.282497 -2.640789,5.956627 -0.651045,1.67414 -1.367932,3.62229 -1.593083,4.32922 -0.225151,0.70693 -0.509423,1.34836 -0.631715,1.42539 -0.122293,0.077 -0.222351,-0.13809 -0.222351,-0.47803 z m 4.826472,-12.109031 c 0.691155,-1.315823 2.016419,-3.551802 2.945032,-4.968842 0.928613,-1.41704 2.308248,-3.349368 3.065856,-4.294061 0.757607,-0.944693 2.556511,-2.877227 3.997564,-4.294519 1.44105,-1.417292 3.27014,-3.086104 4.06465,-3.708471 0.7945,-0.622368 2.36545,-1.732958 3.491,-2.46798 1.12555,-0.735021 3.12987,-1.899902 4.45404,-2.588625 1.32417,-0.688722 3.2219,-1.581668 4.21717,-1.984323 0.99527,-0.402656 2.63764,-1.015401 3.64971,-1.361655 1.01207,-0.346255 2.68961,-0.857818 3.72787,-1.136807 1.03826,-0.278989 2.64614,-0.667471 3.57306,-0.863294 0.92692,-0.195823 3.41878,-0.582366 5.53745,-0.858986 2.11868,-0.276619 5.72434,-0.572306 8.01257,-0.657082 2.57544,-0.09542 4.13013,-0.246769 4.08091,-0.397284 -0.0437,-0.13373 -2.3493,-1.691641 -5.12347,-3.462024 -2.77416,-1.770384 -5.91067,-3.79096 -6.97001,-4.490169 -1.05933,-0.699209 -3.00445,-1.987297 -4.32248,-2.862418 -1.31803,-0.875121 -2.47922,-1.538972 -2.58042,-1.475225 -0.10121,0.06375 0.18051,1.132954 0.62603,2.376014 0.44552,1.24306 1.04566,2.812203 1.33364,3.486984 0.28799,0.674781 0.68596,1.409726 0.88437,1.633212 0.32415,0.365095 0.29185,0.481441 -0.31815,1.1463 -0.53805,0.586426 -1.35333,0.951988 -3.92917,1.761804 -1.78763,0.562012 -4.55034,1.573673 -6.13935,2.248135 -1.58901,0.674462 -4.02669,1.84506 -5.41707,2.601328 -1.39039,0.756269 -3.55722,2.085851 -4.81518,2.954627 -1.25797,0.868777 -3.1028,2.272599 -4.09964,3.119606 -0.99683,0.847006 -2.89281,2.683276 -4.21328,4.0806 -1.320467,1.397323 -3.121259,3.518968 -4.001757,4.714766 -0.880499,1.195798 -2.286869,3.403619 -3.125268,4.906268 -0.838399,1.50265 -2.095223,4.084585 -2.792943,5.737633 -0.69772,1.653048 -1.268582,3.116095 -1.268582,3.251217 0,0.135122 0.04482,0.245676 0.0996,0.245676 0.05478,0 0.665091,-1.076583 1.356247,-2.392405 z"
         id="path36" /></g></g></svg>
